<svg width="121" height="40" viewBox="0 0 121 40" fill="none" xmlns="http://www.w3.org/2000/svg">
<path d="M6.15694 0H33.8394C37.2413 0 40 2.75875 40 6.16059V33.8431C40 37.2413 37.2413 40 33.8394 40H6.15694C2.75875 40 0 37.2413 0 33.8431V6.16059C0 2.75509 2.75875 0 6.15694 0Z" fill="#1DB5FF"/>
<path d="M20 16C13.7028 16 10 20.4681 10 25.5811C10 30.6941 13.6851 35.1992 19.9824 35.1992C26.2796 35.1992 30 30.6941 30 25.5811C30 20.4681 26.3364 16 20 16ZM19.9824 29.1763C17.9577 29.1763 16.8142 27.6263 16.8142 25.5811C16.8142 23.5359 17.9577 22.0221 19.9824 22.0221C22.007 22.0221 23.1858 23.5761 23.1858 25.5811C23.1858 27.586 22.0423 29.1763 19.9824 29.1763Z" fill="#01001A"/>
<path d="M30.0651 11.5845C27.4583 14.2609 23.9004 15.278 20 15.2C16.0956 15.1261 12.5778 13.9777 10.0651 11.2028L14.9416 6.20299C16.2509 7.64381 18.0776 8.55921 20.1121 8.60026C22.1506 8.63721 24.0087 7.7957 25.365 6.40002L30.0651 11.5886V11.5845Z" fill="#01001A"/>
<path d="M57.8334 24L55.3687 18.018H53.4109V24H48V5H57.5401C61.7202 5 63.9713 7.96218 63.9713 11.5209C63.9713 14.7983 62.1762 16.5335 60.7573 17.2758L64 23.9966H57.8366L57.8334 24ZM58.4775 11.4971C58.4775 10.4736 57.6198 10.0161 56.7079 10.0161H53.4109V13.0054H56.7079C57.6198 13.0054 58.4775 12.5478 58.4775 11.4971Z" fill="#1DB5FF"/>
<path d="M76.3772 23.6602V22.1327C75.6587 23.0108 74.2952 24 72.1122 24C69.2352 24 68 22.1057 68 19.7573V10H72.6228V17.577C72.6228 18.9632 73.2923 19.4982 74.4205 19.4982C75.4478 19.4982 75.9889 18.9027 76.3742 18.4249V10H81V23.6568H76.3742L76.3772 23.6602Z" fill="#1DB5FF"/>
<path d="M85 24V5H92.6287C98.0059 5 102 8.41634 102 14.4831C102 20.5498 98.0059 23.9966 92.6561 23.9966H85V24ZM96.7507 14.4864C96.7507 11.9242 95.4194 10.0161 92.653 10.0161H90.1701V18.9873H92.6287C95.2152 18.9873 96.7507 16.8792 96.7507 14.4864Z" fill="#1DB5FF"/>
<path d="M106 16.9852C106 13.256 108.761 10 113.485 10C118.209 10 121 13.2593 121 16.9852C121 20.7111 118.239 24 113.485 24C108.732 24 106 20.7144 106 16.9852ZM115.892 16.9852C115.892 15.5231 115.037 14.3896 113.489 14.3896C111.94 14.3896 111.112 15.5231 111.112 16.9852C111.112 18.4473 111.966 19.6071 113.489 19.6071C115.011 19.6071 115.892 18.4769 115.892 16.9852Z" fill="#1DB5FF"/>
<path d="M53.1589 35L51.9985 29.8285L50.8294 35H49.707L48 28H49.1662L50.3354 33.383L51.5776 28H52.4136L53.6529 33.383L54.8221 28H56L54.2843 35H53.1589Z" fill="#1DB5FF"/>
<path d="M64 35V28H68V29.0814H65.0221V30.886H67.9402V31.9673H65.0221V33.9186H68V35H64Z" fill="#1DB5FF"/>
<path d="M80.8093 35L80.3697 33.6457H77.6303L77.1907 35H76L78.3464 28H79.6536L82 35H80.8093ZM79.0015 29.2281L77.9272 32.5643H80.0757L79.0015 29.2281Z" fill="#1DB5FF"/>
<path d="M90 35V28H91.1392V33.9186H94V35H90Z" fill="#1DB5FF"/>
<path d="M103.94 35V29.0814H102V28H107V29.0814H105.063V35H103.94Z" fill="#1DB5FF"/>
<path d="M118.993 35V31.9366H116.007V35H115V28H116.007V30.8553H118.993V28H120V35H118.993Z" fill="#1DB5FF"/>
</svg>
