<svg width="56" height="56" viewBox="0 0 56 56" fill="none" xmlns="http://www.w3.org/2000/svg">
<path opacity="0.4" d="M43.1663 29.5167V38.15C43.1663 45.43 36.3763 51.3333 27.9997 51.3333C19.623 51.3333 12.833 45.43 12.833 38.15V29.5167C12.833 36.7967 19.623 42 27.9997 42C36.3763 42 43.1663 36.7967 43.1663 29.5167Z" stroke="#1DB5FF" stroke-width="2" stroke-linecap="round" stroke-linejoin="round"/>
<path d="M43.1663 17.85C43.1663 19.9734 42.583 21.9334 41.5563 23.6134C39.0597 27.72 33.9263 30.3334 27.9997 30.3334C22.073 30.3334 16.9397 27.72 14.443 23.6134C13.4163 21.9334 12.833 19.9734 12.833 17.85C12.833 14.21 14.5363 10.92 17.2663 8.54002C20.0197 6.13669 23.7997 4.66669 27.9997 4.66669C32.1997 4.66669 35.9797 6.13669 38.733 8.51669C41.463 10.92 43.1663 14.21 43.1663 17.85Z" stroke="#1DB5FF" stroke-width="2" stroke-linecap="round" stroke-linejoin="round"/>
<path d="M43.1663 17.85V29.5167C43.1663 36.7967 36.3763 42 27.9997 42C19.623 42 12.833 36.7967 12.833 29.5167V17.85C12.833 10.57 19.623 4.66669 27.9997 4.66669C32.1997 4.66669 35.9797 6.13669 38.733 8.51669C41.463 10.92 43.1663 14.21 43.1663 17.85Z" stroke="#1DB5FF" stroke-width="2" stroke-linecap="round" stroke-linejoin="round"/>
</svg>
