<svg width="56" height="56" viewBox="0 0 56 56" fill="none" xmlns="http://www.w3.org/2000/svg">
<path d="M28 12.9731H51.3333" stroke="#1DB5FF" stroke-width="1.5" stroke-miterlimit="10" stroke-linecap="round" stroke-linejoin="round"/>
<path d="M33.18 4.66669H46.1533C50.3067 4.66669 51.3333 5.69336 51.3333 9.80002V19.39C51.3333 23.4967 50.3067 24.5233 46.1533 24.5233H33.18C29.0267 24.5233 28 23.4967 28 19.39V9.80002C28 5.69336 29.0267 4.66669 33.18 4.66669Z" stroke="#1DB5FF" stroke-width="1.5" stroke-linecap="round" stroke-linejoin="round"/>
<path d="M4.66699 39.8064H28.0003" stroke="#1DB5FF" stroke-width="1.5" stroke-miterlimit="10" stroke-linecap="round" stroke-linejoin="round"/>
<path d="M9.847 31.5H22.8203C26.9737 31.5 28.0003 32.5267 28.0003 36.6333V46.2233C28.0003 50.33 26.9737 51.3567 22.8203 51.3567H9.847C5.69366 51.3567 4.66699 50.33 4.66699 46.2233V36.6333C4.66699 32.5267 5.69366 31.5 9.847 31.5Z" stroke="#1DB5FF" stroke-width="1.5" stroke-linecap="round" stroke-linejoin="round"/>
<path opacity="0.4" d="M51.3333 35C51.3333 44.03 44.03 51.3333 35 51.3333L37.45 47.25" stroke="#E2E6E9" stroke-width="1.5" stroke-linecap="round" stroke-linejoin="round"/>
<path opacity="0.4" d="M4.66699 21C4.66699 11.97 11.9703 4.66669 21.0003 4.66669L18.5504 8.75002" stroke="#E2E6E9" stroke-width="1.5" stroke-linecap="round" stroke-linejoin="round"/>
</svg>
