<svg width="150" height="74" viewBox="0 0 150 74" fill="none" xmlns="http://www.w3.org/2000/svg">
<path fill-rule="evenodd" clip-rule="evenodd" d="M46.765 23.0924C46.3087 23.0308 45.6345 23 45.2611 23C44.8877 23.0103 44.2862 23.0514 43.9128 23.1027C43.5394 23.1541 42.8652 23.2979 42.4089 23.4417C41.9525 23.5855 41.2991 23.873 40.9568 24.099C40.6145 24.3147 40.1167 24.7358 39.8367 25.0234C39.567 25.3213 39.2351 25.8143 39.0899 26.1224C38.9447 26.4305 38.7891 27.016 38.7269 27.4063C38.6577 27.8856 38.6577 28.3649 38.7269 28.8442C38.7891 29.2345 38.9239 29.8097 39.0277 30.1076C39.1521 30.4157 39.4529 30.8882 39.7848 31.2477C40.0856 31.5866 40.6145 32.0385 40.9568 32.2542C41.2991 32.4699 41.9318 32.7883 42.357 32.9527C42.7823 33.1067 43.975 33.4867 45.0018 33.7743C46.0286 34.0619 47.1177 34.4214 47.4081 34.5549C47.7089 34.6885 48.0512 34.9247 48.1652 35.089C48.3001 35.2534 48.383 35.5204 48.3727 35.7566C48.3727 36.0442 48.2897 36.2291 48.0304 36.4962C47.8437 36.7119 47.5014 36.9276 47.2318 37.02C46.9725 37.1022 46.4124 37.1946 45.9872 37.2357C45.4582 37.2768 44.9189 37.2357 44.3277 37.1227C43.8402 37.0303 43.1453 36.8043 42.7823 36.6194C42.4089 36.4448 41.8488 36.0442 41.5376 35.7464C41.2161 35.4485 40.9361 35.2123 40.905 35.2123C40.8738 35.2123 40.5005 35.4999 40.0752 35.8491C39.8603 36.0255 39.5899 36.2492 39.328 36.4657L39.3278 36.4659L39.3276 36.4661L39.3258 36.4676C39.0702 36.6789 38.823 36.8833 38.6439 37.0303L38.0008 37.5746C38.4987 38.1703 38.9032 38.5606 39.2247 38.838C39.5566 39.105 40.1167 39.485 40.4901 39.6699C40.8635 39.8651 41.5584 40.1424 42.0459 40.2759C42.5333 40.4197 43.3942 40.5943 43.9646 40.6559C44.5973 40.7381 45.4686 40.7689 46.1946 40.7278C46.8688 40.697 47.7504 40.5738 48.2171 40.4505C48.6735 40.3375 49.3373 40.1013 49.6899 39.937C50.0529 39.7624 50.613 39.3823 50.9345 39.0742C51.2664 38.7763 51.6813 38.2525 51.8576 37.9238C52.0443 37.5952 52.2414 37.0611 52.314 36.7529C52.3866 36.4345 52.4281 35.7464 52.4073 35.1609C52.3658 34.2571 52.3243 34.0517 52.0339 33.4662C51.8369 33.0554 51.4946 32.5932 51.1523 32.2748C50.8515 31.9872 50.2292 31.5661 49.7729 31.3401C49.3165 31.1039 48.3934 30.7546 47.7193 30.5492C47.3094 30.4224 46.7334 30.2485 46.194 30.0857L46.1938 30.0857C45.8597 29.9849 45.5397 29.8883 45.2819 29.8097C44.6181 29.6043 43.8817 29.3372 43.6535 29.214C43.4253 29.0805 43.1349 28.8442 43.0001 28.6799C42.8341 28.4745 42.7615 28.2485 42.7719 27.9506C42.7719 27.622 42.8445 27.4268 43.0519 27.1906C43.2179 27.016 43.5498 26.8208 43.8091 26.7387C44.0684 26.6565 44.5351 26.5641 44.8463 26.5332C45.1782 26.4922 45.7693 26.5332 46.2464 26.6154C46.7028 26.6976 47.3562 26.903 47.6985 27.0776C48.0408 27.2419 48.5386 27.5706 48.8083 27.8069L49.3061 28.228C51.4739 26.4716 52.1065 25.8964 52.1065 25.8143C52.1065 25.7321 51.7954 25.3829 51.4116 25.0337C50.9656 24.6434 50.3641 24.2428 49.7729 23.9552C49.2647 23.7087 48.5594 23.4314 48.2171 23.3492C47.8748 23.267 47.2214 23.1438 46.765 23.0924ZM37.0674 26.3792L37.0155 23.3492C34.0284 23.3081 33.1261 23.3287 33.0742 23.3595C33.0327 23.4006 32.9912 24.099 33.0016 24.9104L33.0224 26.3792H37.0674ZM57.7592 23.3492L57.7903 26.1224C57.8007 27.6425 57.8318 28.9572 57.8629 29.0291C57.894 29.1113 58.1222 28.988 58.506 28.6696C58.8379 28.4128 59.3357 28.0944 59.6261 27.9712C59.9062 27.8479 60.3936 27.6939 60.684 27.622C60.9848 27.5603 61.4827 27.509 61.7731 27.509C62.0739 27.509 62.6028 27.5809 62.9451 27.6631C63.2874 27.7555 63.7541 27.9404 63.9823 28.0636C64.2105 28.1972 64.5735 28.4847 64.7913 28.7004C65.0091 28.9264 65.3203 29.3578 65.4862 29.6659C65.6418 29.974 65.8285 30.4773 65.8907 30.7752C65.9633 31.1244 66.0048 32.8808 66.0048 40.4505H62.0635L62.0116 32.4905L61.7523 32.0283C61.5968 31.7509 61.3271 31.4839 61.0782 31.3401C60.767 31.1655 60.4974 31.1039 59.9891 31.1039C59.5017 31.1039 59.1905 31.1655 58.8586 31.3401C58.5889 31.4736 58.2882 31.7304 57.8629 32.3775L57.7592 40.3992H53.8179L53.7868 31.9769C53.7764 27.3447 53.7868 23.493 53.8179 23.4211C53.8594 23.3184 54.3157 23.2979 57.7592 23.3492ZM75.8062 27.6117C75.3498 27.4987 74.5097 27.3857 73.9393 27.3549C73.3688 27.3344 72.5909 27.3549 72.1968 27.4166C71.813 27.4679 71.0663 27.6425 70.5373 27.8171C70.0187 27.9815 69.303 28.2793 68.9608 28.4847C68.6185 28.6902 68.1933 28.9572 68.0273 29.0907L67.7162 29.327C69.3653 31.186 69.8631 31.7201 69.8942 31.7201C69.9254 31.7201 70.195 31.5558 70.4854 31.3606C70.7862 31.1655 71.3152 30.9087 71.6575 30.7855C72.062 30.6519 72.5494 30.5698 73.0577 30.5595C73.7007 30.5595 73.9393 30.6006 74.4267 30.8265C74.8209 31.0114 75.1009 31.2168 75.2357 31.4428C75.3395 31.6174 75.4847 32.0488 75.5469 32.3877C75.6091 32.7267 75.6195 33.0348 75.578 33.0759C75.5365 33.117 75.0076 33.0862 74.406 32.9937C73.6592 32.8808 72.9436 32.8499 72.1242 32.8808C71.4708 32.9116 70.6721 33.0143 70.361 33.1067C70.0498 33.2094 69.6038 33.3738 69.3757 33.497C69.1475 33.61 68.7118 33.9387 68.4111 34.2263C68.0895 34.5344 67.768 34.9658 67.6436 35.2636C67.5087 35.582 67.405 36.0853 67.3739 36.5989C67.3324 37.2562 67.3739 37.5746 67.5606 38.1909C67.7576 38.8482 67.8717 39.0434 68.38 39.5364C68.7845 39.937 69.1475 40.1835 69.5831 40.3478C70.0498 40.5224 70.4854 40.5943 71.3463 40.6251C72.176 40.6662 72.6843 40.6354 73.1821 40.5121C73.5762 40.4197 74.1674 40.204 74.5097 40.0397C74.852 39.8753 75.2876 39.598 75.4639 39.4234C75.6506 39.2591 75.8269 39.1153 75.8581 39.1153C75.8892 39.1153 76.0344 39.2899 76.1899 39.5261C76.3559 39.7521 76.6982 40.0602 76.9678 40.2246C77.4346 40.4813 77.5383 40.5019 78.7103 40.5019C79.5297 40.5019 80.1209 40.4505 80.4528 40.3478L80.9506 40.1937L80.9403 37.5746C80.1727 37.5746 79.9031 37.5335 79.8305 37.4925C79.7682 37.4514 79.6645 37.2973 79.6023 37.1432C79.5297 36.9584 79.4882 35.8388 79.4882 34.1646C79.4882 32.6445 79.4363 31.2579 79.3741 31.0012C79.3119 30.7444 79.1459 30.2822 78.9903 29.974C78.8451 29.6659 78.4821 29.1832 78.2021 28.8956C77.9117 28.6183 77.4346 28.2588 77.1545 28.1047C76.8641 27.9506 76.2626 27.735 75.8062 27.6117ZM97.7426 27.3755C98.1679 27.4063 98.8213 27.4885 99.1947 27.5706C99.5681 27.6528 100.19 27.8788 100.595 28.0739C101.062 28.2999 101.549 28.6491 101.974 29.0702C102.41 29.5016 102.752 29.9638 102.991 30.4362C103.177 30.8265 103.416 31.4325 103.499 31.7715C103.592 32.1412 103.655 32.8397 103.655 33.5176C103.655 34.1441 103.634 34.7501 103.551 35.1096H99.1428C95.7097 35.1096 94.7244 35.1404 94.6933 35.2431C94.6622 35.3047 94.7555 35.6026 94.88 35.8799C95.0148 36.1675 95.2845 36.5475 95.4919 36.7324C95.7097 36.907 96.052 37.1432 96.2595 37.2357C96.5499 37.3589 96.9544 37.4103 97.7426 37.4103C98.6242 37.4103 98.9354 37.3692 99.4021 37.1946C99.7133 37.0713 100.19 36.8043 100.46 36.5989C100.555 36.5326 100.644 36.4699 100.721 36.416L100.721 36.4158L100.722 36.4154C100.87 36.3108 100.972 36.2394 100.979 36.2394C100.999 36.2394 101.528 36.7735 103.292 38.6325L102.721 39.1358C102.41 39.4131 101.829 39.7932 101.425 39.9883C101.02 40.1732 100.398 40.4197 100.024 40.5121C99.5162 40.6559 98.9561 40.697 97.7426 40.697C96.5395 40.7073 95.969 40.6559 95.4608 40.5224C95.0874 40.43 94.3925 40.1527 93.905 39.9164C93.2827 39.6083 92.8367 39.3002 92.4011 38.8688C92.0589 38.5196 91.6336 37.9649 91.4469 37.626C91.2706 37.287 91.0113 36.6605 90.8868 36.2394C90.6794 35.5923 90.6379 35.2431 90.6379 34.0825C90.6379 33.0554 90.6898 32.5213 90.8246 32.0283C90.9283 31.6585 91.1669 31.073 91.3432 30.7136C91.5299 30.3643 91.8307 29.8816 92.0277 29.6351C92.2248 29.3989 92.6086 29.0188 92.8782 28.7929C93.1583 28.5669 93.625 28.2588 93.9258 28.1047C94.2266 27.9506 94.7348 27.7452 95.0459 27.6528C95.3571 27.5603 95.9172 27.4474 96.2906 27.4063C96.664 27.3652 97.3174 27.3447 97.7426 27.3755ZM112.284 27.5501C111.869 27.4679 110.956 27.4063 110.21 27.4166C109.235 27.4166 108.685 27.4679 108.114 27.622C107.689 27.735 107.067 27.9712 106.725 28.1561C106.393 28.3409 105.947 28.6696 105.75 28.8956C105.542 29.1215 105.262 29.5632 105.117 29.8713C104.899 30.3438 104.858 30.58 104.858 31.3606C104.868 32.0488 104.92 32.4288 105.086 32.8499C105.221 33.1992 105.49 33.5997 105.802 33.9079C106.092 34.1955 106.611 34.5549 107.025 34.7501C107.44 34.9555 108.55 35.3047 109.587 35.5718C110.604 35.8285 111.579 36.1059 111.745 36.188C111.911 36.2702 112.108 36.4448 112.17 36.5783C112.253 36.7427 112.242 36.8762 112.139 37.0919C112.056 37.2665 111.848 37.4411 111.61 37.5233C111.382 37.6157 110.873 37.6773 110.313 37.6773C109.815 37.6773 109.172 37.6157 108.892 37.5335C108.602 37.4616 108.166 37.3076 107.907 37.1946C107.648 37.0816 107.202 36.8146 106.922 36.5989L106.403 36.2086C104.692 38.0266 104.215 38.5915 104.235 38.6531C104.267 38.7147 104.526 38.9407 104.827 39.1564C105.117 39.3721 105.719 39.711 106.144 39.9164C106.569 40.1116 107.274 40.3684 107.7 40.4813C108.322 40.6457 108.809 40.6868 110.189 40.697C111.537 40.7073 112.045 40.6662 112.574 40.5224C112.948 40.4197 113.497 40.2246 113.788 40.091C114.089 39.9472 114.576 39.6186 114.867 39.3515C115.157 39.0742 115.51 38.6531 115.634 38.3963C115.769 38.1395 115.924 37.6363 115.997 37.2665C116.059 36.8967 116.09 36.3729 116.049 36.0853C116.018 35.7977 115.852 35.2842 115.676 34.935C115.447 34.442 115.24 34.1852 114.825 33.877C114.535 33.6511 113.933 33.3327 113.508 33.1683C113.083 33.004 112.025 32.6959 111.174 32.4802C110.313 32.2748 109.452 32.0283 109.255 31.9255C109.058 31.8228 108.83 31.679 108.758 31.6071C108.685 31.525 108.643 31.3298 108.654 31.1655C108.675 30.9806 108.799 30.7855 108.975 30.6519C109.235 30.4671 109.411 30.4362 110.376 30.4465C111.288 30.4465 111.599 30.4979 112.108 30.693C112.45 30.8265 112.958 31.0936 113.249 31.2887L113.767 31.638C115.416 29.9124 115.893 29.3475 115.893 29.2859C115.893 29.214 115.582 28.9469 115.188 28.7004C114.804 28.4437 114.172 28.1253 113.767 27.9712C113.363 27.8171 112.699 27.6322 112.284 27.5501ZM89.2896 27.5603C89.6526 27.5809 90.109 27.7041 90.3682 27.8377C90.6275 27.9712 90.8868 28.1561 90.9387 28.2485C91.032 28.382 90.8868 28.7518 90.2853 29.9946L90.1277 30.3143C89.776 31.0283 89.5048 31.5789 89.4866 31.5969C89.4659 31.6071 89.2999 31.5455 89.134 31.4634C88.968 31.3812 88.6258 31.2785 88.3769 31.2477C88.0553 31.1963 87.8168 31.2374 87.4434 31.4017C87.1322 31.5352 86.8626 31.7509 86.6966 32.0077C86.5618 32.2131 86.3958 32.5932 86.344 32.8499C86.2817 33.117 86.2299 34.822 86.2299 40.4505H84.2592C82.5997 40.4505 82.2782 40.43 82.2367 40.2965C82.2056 40.2143 82.1849 37.4411 82.1849 34.1338C82.1849 30.8265 82.2056 28.0534 82.2367 27.9712C82.2782 27.8377 82.5894 27.8171 86.1262 27.8171V28.4642C86.1262 28.8134 86.1469 29.1318 86.178 29.1832C86.2091 29.2243 86.541 28.9367 86.9248 28.5464C87.4641 28.0123 87.7545 27.7966 88.1487 27.6733C88.4909 27.5706 88.8851 27.5295 89.2896 27.5603ZM37.0674 27.8171H33.0224L33.0431 34.103L33.0742 40.3992H37.0155L37.0674 27.8171ZM33.0224 45.5963H34.2773L34.267 46.2331C34.267 46.5823 34.2877 46.911 34.3188 46.9521C34.35 46.9932 34.547 46.9521 34.7648 46.8597C35.0345 46.7467 35.3042 46.7159 35.6464 46.757C36.0302 46.8083 36.2273 46.911 36.5384 47.2089C36.8599 47.517 36.974 47.7224 37.0777 48.2154C37.1815 48.6982 37.1815 48.9344 37.0881 49.3453C37.0155 49.6226 36.8496 49.9923 36.7251 50.1669C36.5903 50.3313 36.3206 50.547 36.1028 50.6497C35.8954 50.7524 35.5635 50.8346 35.3664 50.8346C35.159 50.8346 34.8582 50.7627 34.6922 50.6805C34.4744 50.5675 34.3396 50.5572 34.2462 50.6291C34.1736 50.6805 33.8832 50.7216 33.0846 50.6805L33.0535 48.1333L33.0224 45.5963ZM44.4625 45.5963H42.9793V48.1641V50.7319C45.8212 50.7319 46.1012 50.701 46.485 50.5264C46.7443 50.4032 46.9829 50.1978 47.0762 50.0129C47.1695 49.8485 47.2318 49.4788 47.2318 49.1912C47.2318 48.7598 47.1903 48.6263 46.9206 48.3695C46.7547 48.2052 46.6095 48.0408 46.6095 48.01C46.6095 47.9792 46.7339 47.8149 46.8688 47.6505C47.0243 47.4759 47.1281 47.2089 47.1281 47.0343C47.1281 46.8699 47.0451 46.5618 46.9517 46.3564C46.8273 46.1201 46.6198 45.925 46.3502 45.7915C46.0079 45.6271 45.6967 45.5963 44.4625 45.5963ZM47.7504 45.5963H48.8913V50.7319H47.7504V48.1641V45.5963ZM59.0868 46.8494L59.066 45.5963C58.0911 45.5963 57.9148 45.6374 57.8733 45.7504C57.8422 45.8326 57.8111 46.9213 57.8111 48.1641C57.8111 49.4069 57.8422 50.4956 57.8629 50.5778C57.9044 50.6908 58.0703 50.7319 58.4852 50.7319H59.0557C59.0557 49.8588 59.1075 49.7047 59.315 49.4993C59.4602 49.3555 59.6157 49.2836 59.6572 49.335C59.6987 49.3761 59.8958 49.7047 60.0929 50.054L60.4662 50.6805C61.5242 50.7216 61.6486 50.701 61.6486 50.5778C61.6486 50.4956 61.3997 49.9821 61.0782 49.448C60.767 48.9139 60.5077 48.4311 60.5077 48.3695C60.5077 48.3079 60.7463 48.01 61.0263 47.7019C61.3167 47.3938 61.5242 47.0959 61.4931 47.0343C61.4723 46.9726 61.2026 46.9316 60.9019 46.9316C60.3625 46.9418 60.3418 46.9521 59.8336 47.5478C59.5535 47.8765 59.2735 48.1333 59.2112 48.123C59.149 48.1025 59.0972 47.5684 59.0868 46.8494ZM62.1672 45.5963H63.5467C64.6565 45.5963 64.9987 45.6374 65.3306 45.7915C65.5588 45.8942 65.87 46.1099 66.0048 46.2639C66.1811 46.4488 66.2745 46.6953 66.3056 47.0137C66.3263 47.2808 66.316 47.6197 66.2848 47.7841C66.2434 47.9381 66.0359 48.236 65.4032 48.8317L65.9115 49.7047C66.1811 50.1875 66.3886 50.6086 66.3678 50.66C66.3367 50.701 66.0359 50.7319 65.0713 50.7319L64.5839 49.8588C64.1171 49.0474 64.0653 48.9858 63.7541 48.9858C63.5467 48.9858 63.3911 49.0474 63.36 49.1398C63.3392 49.222 63.3081 49.6123 63.3081 50.7319H62.1672V48.1641V45.5963ZM76.4804 45.5963H75.2357L75.2669 48.1435L75.2876 50.6805H76.4285C76.4804 49.9204 76.5737 49.6739 76.7189 49.5199C76.8434 49.3966 76.9782 49.2939 76.999 49.2939C77.0301 49.2939 77.2375 49.6123 77.4657 50.0129L77.8806 50.7319C78.8866 50.7319 79.0733 50.6908 79.0733 50.6086C79.0837 50.5367 78.8036 49.9923 78.4614 49.3966L77.8391 48.3182C78.7103 47.3629 78.9489 47.0548 78.9177 47.0137C78.8866 46.9624 78.6377 46.9316 78.3473 46.9316C77.8494 46.9316 77.808 46.9521 77.2582 47.5478C76.9471 47.8868 76.6463 48.1435 76.5841 48.1127C76.5218 48.0819 76.4804 47.5478 76.4804 46.8288V45.5963ZM51.2457 46.8288C51.6813 46.8288 52.0339 46.8905 52.2829 47.0137C52.5318 47.137 52.7392 47.3424 52.8533 47.5786C52.9881 47.8457 53.04 48.2052 53.04 48.8831C53.04 49.715 53.0607 49.8075 53.2474 49.8588C53.403 49.8896 53.4549 49.9923 53.4549 50.2902C53.4549 50.66 53.4341 50.6805 53.0711 50.7421C52.8533 50.7832 52.5629 50.7729 52.4177 50.7113C52.2725 50.66 52.1273 50.5572 52.0858 50.4853C52.0339 50.4032 51.9302 50.4135 51.7228 50.5367C51.5568 50.6394 51.2457 50.7421 51.0175 50.7832C50.7789 50.8243 50.4367 50.8037 50.2085 50.7421C50.0011 50.6805 49.7314 50.4956 49.6173 50.3416C49.4928 50.1772 49.3995 49.9102 49.4099 49.7047C49.4099 49.4993 49.5032 49.1912 49.6173 49.0063C49.7521 48.7906 49.9596 48.6366 50.2085 48.5544C50.4263 48.4928 50.893 48.4619 51.2457 48.4825C51.6087 48.503 51.8991 48.4825 51.8991 48.4414C51.8991 48.4003 51.8472 48.2565 51.7746 48.1333C51.7124 48.01 51.6087 47.8662 51.5465 47.8251C51.4842 47.7841 51.3079 47.7532 51.142 47.7532C50.9864 47.7532 50.696 47.8251 50.1255 48.1127L49.8766 47.8046C49.7418 47.63 49.6173 47.4348 49.6069 47.3732C49.5966 47.3116 49.8144 47.1678 50.0944 47.0445C50.4263 46.9007 50.8308 46.8288 51.2457 46.8288ZM56.7739 47.0343C56.4835 46.8905 56.1619 46.8288 55.7056 46.8288C55.2907 46.8288 54.9173 46.9007 54.658 47.0343C54.4298 47.137 54.1602 47.3629 54.0564 47.517C53.9424 47.6711 53.8075 47.9895 53.7453 48.2154C53.6934 48.4311 53.6623 48.8112 53.6831 49.0371C53.7142 49.2528 53.8179 49.6226 53.932 49.8485C54.0357 50.0642 54.295 50.3621 54.4921 50.4853C54.6995 50.6291 55.0936 50.7524 55.4255 50.7935C55.7885 50.8346 56.1412 50.8037 56.4109 50.7216C56.639 50.6497 56.9813 50.4545 57.1576 50.3005C57.3443 50.1361 57.4999 49.9513 57.4999 49.8794C57.4999 49.8075 57.3028 49.6534 57.0643 49.5301C56.6287 49.3042 56.6183 49.3042 56.4316 49.4993C56.3382 49.6123 56.1308 49.7253 55.9649 49.7664C55.8093 49.7972 55.5811 49.7972 55.4463 49.7664C55.3218 49.7253 55.1455 49.5918 55.0625 49.4685C54.9692 49.3453 54.8862 49.0679 54.8758 48.8625C54.8654 48.6674 54.9277 48.3695 55.0107 48.2257C55.0936 48.0716 55.3114 47.9073 55.4981 47.8457C55.7574 47.7738 55.913 47.7841 56.1516 47.9073C56.3175 47.9895 56.4731 48.1127 56.4938 48.1846C56.5249 48.2771 56.6701 48.2463 57.0124 48.0819C57.2821 47.9587 57.4999 47.8149 57.4999 47.7738C57.4999 47.7327 57.4273 47.5889 57.3443 47.4657C57.2613 47.3424 57.002 47.1473 56.7739 47.0343ZM68.6185 46.8288C68.9919 46.8288 69.3653 46.8905 69.6038 47.0137C69.8216 47.1164 70.112 47.3424 70.2676 47.5067C70.4128 47.6711 70.5788 48.0306 70.641 48.3182C70.7136 48.616 70.7344 48.9755 70.6825 49.1912C70.641 49.3863 70.5269 49.6945 70.4336 49.8794C70.3299 50.0745 70.0498 50.3313 69.7594 50.4853C69.4897 50.6394 69.0852 50.7832 68.8571 50.8037C68.6289 50.8346 68.2451 50.8037 67.9962 50.7421C67.7576 50.6702 67.3946 50.4751 67.1872 50.2902C66.9901 50.1053 66.7516 49.7664 66.6582 49.5507C66.5649 49.3042 66.513 48.9241 66.5441 48.6263C66.5649 48.2771 66.679 47.9689 66.8657 47.6813C67.0316 47.4554 67.3531 47.1678 67.5917 47.0445C67.8925 46.8905 68.214 46.8288 68.6185 46.8288ZM74.1986 47.0343C73.9081 46.8905 73.5866 46.8288 73.1303 46.8288C72.7154 46.8288 72.342 46.9007 72.0827 47.0343C71.8545 47.137 71.5849 47.3629 71.4811 47.517C71.367 47.6711 71.2322 47.9895 71.17 48.2154C71.1181 48.4311 71.087 48.8112 71.1077 49.0371C71.1389 49.2528 71.2426 49.6226 71.3567 49.8485C71.4604 50.0642 71.7197 50.3621 71.9168 50.4853C72.1242 50.6291 72.5183 50.7524 72.8502 50.7935C73.2132 50.8346 73.5659 50.8037 73.8355 50.7216C74.0637 50.6497 74.406 50.4545 74.5823 50.3005C74.769 50.1361 74.9246 49.9513 74.9246 49.8794C74.9246 49.8075 74.7275 49.6534 74.489 49.5301C74.0533 49.3042 74.043 49.3042 73.8563 49.4993C73.7629 49.6123 73.5555 49.7253 73.3895 49.7664C73.234 49.7972 73.0058 49.7972 72.871 49.7664C72.7465 49.7253 72.5598 49.5712 72.4665 49.4172C72.3731 49.2631 72.3005 48.955 72.3109 48.729C72.3213 48.4414 72.4042 48.236 72.5598 48.0922C72.6946 47.9689 72.9124 47.8354 73.0577 47.8046C73.2443 47.7532 73.4414 47.8149 73.7318 48.01C73.9588 48.1561 74.0616 48.2223 74.1642 48.222C74.2491 48.2217 74.3339 48.1759 74.489 48.0922C74.686 47.9895 74.852 47.8662 74.8831 47.8251C74.9038 47.7841 74.852 47.63 74.769 47.4965C74.686 47.3527 74.4267 47.1473 74.1986 47.0343ZM38.4157 46.9316L38.7476 47.9587C38.9447 48.5338 39.1417 48.9858 39.2143 48.9858C39.2869 48.9858 39.4114 48.7393 39.4944 48.4414C39.5774 48.1435 39.6914 47.6813 39.8678 46.9316H40.4901C40.8323 46.9316 41.1124 46.9418 41.1124 46.9521C41.1124 46.9624 40.8116 47.8765 40.4382 48.9858C40.0545 50.0848 39.65 51.1324 39.5255 51.307C39.401 51.4919 39.204 51.6973 39.0899 51.759C38.9758 51.8309 38.7165 51.9233 38.5194 51.9746C38.312 52.0157 37.9801 52.0055 37.7623 51.9541C37.5548 51.9028 37.3578 51.8103 37.3267 51.759C37.2956 51.6973 37.3578 51.5022 37.4615 51.3173C37.6275 51.0194 37.6897 50.9886 38.0838 51.0092C38.4157 51.0297 38.5298 50.9989 38.5817 50.8551C38.6231 50.7524 38.3431 49.941 37.9179 48.8831C37.5134 47.8868 37.2022 47.0445 37.2333 47.0035C37.2644 46.9624 37.5341 46.9316 38.4157 46.9316ZM98.3455 30.6522C98.0965 30.5701 97.7335 30.4879 97.5365 30.4571C97.3394 30.4365 96.9453 30.4571 96.6549 30.5084C96.3748 30.5495 96.0222 30.6625 95.877 30.755C95.7318 30.8474 95.5036 31.022 95.3791 31.1453C95.2443 31.2582 95.0369 31.5356 94.9331 31.7512C94.8294 31.9567 94.7361 32.2443 94.7361 32.388V32.6448C99.1441 32.6448 99.7145 32.614 99.7145 32.5216C99.7145 32.4497 99.6523 32.2032 99.5797 31.9875C99.5175 31.7718 99.2997 31.4123 99.1234 31.1966C98.9159 30.9501 98.6048 30.7344 98.3455 30.6522ZM74.4902 35.1201C74.0443 35.0585 73.5568 35.0072 73.3908 35.0174H73.4012C73.2352 35.0174 72.893 35.0791 72.6337 35.1407C72.364 35.2126 72.0529 35.3564 71.918 35.4694C71.7936 35.5823 71.6172 35.8186 71.5343 35.9829C71.4305 36.1781 71.3891 36.4759 71.4098 36.7738C71.4409 37.1333 71.5239 37.3284 71.7625 37.5749C71.9284 37.7495 72.2603 37.9447 72.4885 38.0063C72.7167 38.0577 73.1626 38.0885 73.4738 38.0577C73.785 38.0371 74.2309 37.9241 74.4591 37.8112C74.6873 37.6982 74.9985 37.4619 75.1644 37.2771C75.32 37.1025 75.4859 36.7841 75.5482 36.5786C75.6 36.3629 75.6519 36.0137 75.6519 35.8083C75.6519 35.5413 75.5897 35.3872 75.4756 35.3256C75.3718 35.2742 74.9259 35.1818 74.4902 35.1201ZM44.889 46.6135H44.2149V47.127V47.6406C45.3246 47.6406 45.501 47.5995 45.6669 47.4351C45.781 47.3222 45.8743 47.1578 45.8743 47.0757C45.8743 46.9935 45.8017 46.8497 45.7188 46.7675C45.6151 46.6648 45.3454 46.6135 44.889 46.6135ZM64.0043 46.6135C64.357 46.6135 64.6889 46.6751 64.8237 46.7675C64.9827 46.8702 65.0622 47.0243 65.0622 47.2297C65.0622 47.4043 64.9689 47.6303 64.8548 47.7433C64.6889 47.9076 64.5125 47.9487 64.0251 47.9487C63.5687 47.9487 63.3924 47.9076 63.3509 47.7946C63.3198 47.7125 63.299 47.4762 63.299 47.2811C63.299 47.0859 63.3301 46.8497 63.3613 46.7675C63.4028 46.6545 63.5791 46.6135 64.0043 46.6135ZM35.4195 47.8665C35.2951 47.7946 35.1084 47.7433 35.0047 47.7433C34.9113 47.7535 34.6935 47.8254 34.5276 47.9076C34.2268 48.0514 34.2164 48.0822 34.2371 48.7704C34.2579 49.3866 34.289 49.5099 34.4861 49.6434C34.6209 49.7256 34.8802 49.7975 35.0669 49.7975C35.2951 49.7975 35.4921 49.7119 35.6581 49.5407C35.8655 49.3353 35.9174 49.1812 35.9174 48.8012C35.9174 48.5239 35.8552 48.2363 35.7825 48.1438C35.7099 48.0514 35.5544 47.9282 35.4195 47.8665ZM68.7961 47.8049C68.9413 47.8254 69.1591 47.9692 69.2836 48.1028C69.4392 48.2671 69.5221 48.4931 69.5221 48.719C69.5221 48.9142 69.4599 49.1915 69.3873 49.3353C69.3251 49.4791 69.1591 49.6332 69.0243 49.6948C68.8998 49.7461 68.6924 49.7975 68.5576 49.7975C68.4331 49.8078 68.2049 49.7153 68.039 49.5921C67.8523 49.4551 67.7382 49.26 67.6967 49.0066C67.6656 48.7704 67.6967 48.4931 67.7797 48.3185C67.8523 48.1541 68.0493 47.959 68.2257 47.8768C68.3916 47.8049 68.6509 47.7741 68.7961 47.8049ZM45.6151 48.6677C45.4698 48.6163 45.1276 48.565 44.8579 48.565C44.5779 48.565 44.3186 48.5958 44.2667 48.6369C44.2149 48.6677 44.1837 48.9244 44.1941 49.2018L44.2149 49.6948C45.4491 49.705 45.6565 49.6537 45.8017 49.5202C45.9366 49.3866 45.9781 49.2531 45.9366 49.058C45.8951 48.8834 45.7706 48.7293 45.6151 48.6677ZM51.5265 49.1319L51.5789 49.1401C51.8485 49.1915 51.9315 49.2531 51.9108 49.3969C51.9004 49.5099 51.7967 49.6845 51.6826 49.7975C51.5685 49.9105 51.3507 50.0029 51.1847 50.0029C51.0292 50.0029 50.8425 49.9516 50.7699 49.8797C50.6973 49.8078 50.635 49.6434 50.6246 49.5099C50.6143 49.3456 50.6869 49.2531 50.8632 49.1812C50.998 49.1299 51.1329 49.0888 51.164 49.0888C51.1923 49.0794 51.3497 49.1042 51.5265 49.1319L51.5265 49.1319Z" fill="white"/>
</svg>
