<svg width="160" height="100" viewBox="0 0 160 100" fill="none" xmlns="http://www.w3.org/2000/svg">
<rect width="160" height="100" rx="16" fill="white"/>
<path fill-rule="evenodd" clip-rule="evenodd" d="M50.8736 47.7889H49.8877C49.2305 47.7889 48.9558 47.3923 48.9558 46.8179V42.71H50.8736V41.5509H48.9558V39.3647H47.5713V46.7924C47.5713 48.3583 48.4009 49.0294 49.8824 49.0294H50.8682V47.7838L50.8736 47.7889Z" fill="#0072AA"/>
<path fill-rule="evenodd" clip-rule="evenodd" d="M37.5771 45.5016V45.5575C37.5771 48.2164 39.8774 49.1722 42.0323 49.1722C44.1871 49.1722 46.2558 48.2215 46.2558 46.1167C46.2558 44.012 44.478 43.5188 42.808 43.163L42.2262 43.046C40.7286 42.7359 39.4357 42.4766 39.4357 41.4242C39.4357 39.9245 41.068 39.7567 41.7683 39.7567C43.309 39.7567 44.2033 40.4583 44.3541 41.7699V41.8157H45.814V41.7598C45.7278 39.7008 44.2787 38.5264 41.8276 38.5264C39.8774 38.5264 37.9058 39.4517 37.9058 41.5259C37.9058 43.3765 39.5434 43.8645 41.3697 44.2408L41.7306 44.317C43.2713 44.6271 44.7312 44.922 44.7312 46.1625C44.7312 47.708 43.072 47.9368 42.0862 47.9368C41.2511 47.9368 40.497 47.7335 39.9636 47.3725C39.3603 46.9607 39.0424 46.3354 39.0424 45.5677V45.5118H37.5825L37.5771 45.5016Z" fill="#0072AA"/>
<path fill-rule="evenodd" clip-rule="evenodd" d="M59.1919 47.8298L59.1164 47.8552C58.944 47.9162 58.8309 47.9213 58.7501 47.9213C58.4161 47.9213 58.3999 47.7536 58.3999 47.1638V43.4169C58.3999 42.029 57.4357 41.3579 55.4478 41.3579C54.2411 41.3579 52.2102 41.6782 52.1186 43.8491V43.905H53.4977V43.8541C53.5516 42.9492 54.1495 42.5221 55.3724 42.5221C56.5037 42.5221 57.0316 42.8882 57.0316 43.6864C57.0316 44.3473 56.3205 44.4439 55.3401 44.571C55.0599 44.6066 54.7744 44.6472 54.4728 44.7032C53.126 44.9472 51.8115 45.3234 51.8115 47.0011C51.8115 48.3077 52.792 49.1008 54.4243 49.1008C55.5232 49.1008 56.4121 48.7348 57.0963 48.0383C57.1501 48.8975 57.7266 49.1008 58.2168 49.1008C58.6154 49.1008 58.9117 49.0296 59.1595 48.8873L59.1865 48.872V47.8349L59.1919 47.8298ZM54.7152 47.9213C54.2842 47.9213 53.2822 47.8247 53.2822 46.9096C53.2822 45.9945 54.0472 45.7708 54.7852 45.6488C55.0115 45.6132 55.2539 45.5827 55.4855 45.5573C56.0781 45.4861 56.6438 45.4149 57.0208 45.2014C57.0208 45.2014 57.0532 45.1811 57.0208 45.2014V46.3351C57.0208 46.9503 56.3959 47.9264 54.7152 47.9264V47.9213Z" fill="#0072AA"/>
<path fill-rule="evenodd" clip-rule="evenodd" d="M60.415 41.5562V48.9432H61.7995V44.7794C61.7995 43.3864 62.6291 42.5475 64.0244 42.5475C64.951 42.5475 65.5328 43.0966 65.5328 43.9609V48.9432H66.9173V44.1032C66.9173 42.273 66.0284 41.3833 64.2022 41.3833C63.0924 41.3833 62.2628 41.7951 61.7187 42.6085V41.5511H60.415V41.5562Z" fill="#0072AA"/>
<path fill-rule="evenodd" clip-rule="evenodd" d="M74.2611 38.78V42.4557C73.6739 41.6728 72.6181 41.3881 71.7992 41.3881C69.6174 41.3881 68.2168 42.8929 68.2168 45.2316C68.2168 46.3043 68.54 47.2702 69.1164 47.9515C69.7575 48.709 70.6949 49.1208 71.8315 49.1208C72.9682 49.1208 73.8355 48.7293 74.2611 48.0532V48.9429H75.6456V38.7749H74.2611V38.78ZM72.0093 47.9515C70.3986 47.9515 69.6767 46.6297 69.6767 45.3129C69.6767 44.4842 69.8976 42.5472 71.9393 42.5472C74.1372 42.5472 74.3096 44.6215 74.3096 45.2519C74.3096 46.5585 73.7063 47.9464 72.0093 47.9464V47.9515Z" fill="#0072AA"/>
<path fill-rule="evenodd" clip-rule="evenodd" d="M84.4106 47.8552L84.3351 47.8806C84.1628 47.9416 84.0496 47.9467 83.9688 47.9467C83.6294 47.9467 83.6133 47.7789 83.6133 47.1892V43.4423C83.6133 42.0544 82.649 41.3833 80.6719 41.3833C79.4598 41.3833 77.4343 41.7036 77.3427 43.8744V43.9304H78.7218V43.8795C78.7757 42.9746 79.3682 42.5475 80.5965 42.5475C81.7278 42.5475 82.2503 42.9237 82.2503 43.7067C82.2503 44.3676 81.5446 44.4642 80.5642 44.5913C80.2841 44.6269 79.9985 44.6676 79.6969 44.7235C78.3555 44.9675 77.041 45.3437 77.041 47.0214C77.041 48.328 78.0107 49.1211 79.6484 49.1211C80.7473 49.1211 81.6416 48.7551 82.315 48.0586C82.3689 48.9178 82.9453 49.1211 83.4355 49.1211C83.8395 49.1211 84.1358 49.0499 84.3836 48.9076L84.4106 48.8923V47.8552ZM79.9339 47.9467C79.5029 47.9467 78.5009 47.8501 78.5009 46.935C78.5009 46.0199 79.2605 45.7962 79.9985 45.6742C80.2248 45.6386 80.4618 45.6081 80.6989 45.5827C81.2914 45.5115 81.8571 45.4403 82.2288 45.2268C82.2288 45.2268 82.2611 45.2065 82.2288 45.2268V46.3605C82.2288 46.9757 81.6039 47.9518 79.9285 47.9518L79.9339 47.9467Z" fill="#0072AA"/>
<path fill-rule="evenodd" clip-rule="evenodd" d="M89.7927 41.3886H89.7388C88.4459 41.3479 87.5786 41.836 86.9267 42.9799V41.5513H85.623V48.9383H87.0021V45.6439C87.0021 43.6764 87.8802 42.7511 89.7388 42.7511H89.798V41.3784L89.7927 41.3886Z" fill="#0072AA"/>
<path fill-rule="evenodd" clip-rule="evenodd" d="M96.0287 38.78V42.4557C95.4415 41.6728 94.391 41.3881 93.5614 41.3881C91.3904 41.3881 89.9844 42.8929 89.9844 45.2316C89.9844 46.3043 90.3022 47.2702 90.8894 47.9515C91.5305 48.709 92.4624 49.1208 93.5991 49.1208C94.7358 49.1208 95.6085 48.7242 96.0341 48.0532V48.9429H97.424V38.7749H96.0341L96.0287 38.78ZM93.7769 47.9515C92.1608 47.9515 91.4443 46.6297 91.4443 45.3129C91.4443 44.4842 91.6652 42.5472 93.7069 42.5472C95.9048 42.5472 96.0772 44.6215 96.0772 45.2519C96.0772 46.5585 95.4738 47.9464 93.7823 47.9464L93.7769 47.9515Z" fill="#0072AA"/>
<path fill-rule="evenodd" clip-rule="evenodd" d="M40.4396 59.2131V59.264C40.2942 61.018 39.1414 62.1161 37.4229 62.1161C36.2377 62.1161 35.3165 61.7094 34.697 60.8909C34.1421 60.174 33.8458 59.1623 33.8458 57.9574C33.8458 56.8593 34.1529 55.873 34.6916 55.1663C35.3111 54.363 36.2539 53.9461 37.4067 53.9461C38.9636 53.9461 40.0572 54.7291 40.3319 56.0458L40.3427 56.0916H41.878L41.8672 56.0306C41.711 54.9884 41.1885 54.1393 40.3642 53.5547C39.5831 53.0056 38.5649 52.7158 37.4283 52.7158C35.8552 52.7158 34.5408 53.2598 33.625 54.2868C32.7846 55.2324 32.3213 56.5796 32.3213 58.0642C32.3213 61.3332 34.2337 63.3617 37.3097 63.3617C38.6296 63.3617 39.7555 62.9855 40.5636 62.2737C41.3555 61.5721 41.8457 60.535 41.975 59.2843V59.2233H40.445L40.4396 59.2131Z" fill="#0072AA"/>
<path fill-rule="evenodd" clip-rule="evenodd" d="M43.3018 52.9346V63.1178H44.6862V58.9438C44.6862 57.5457 45.5212 56.712 46.9111 56.712C47.8431 56.712 48.4195 57.2509 48.4195 58.1202V63.1178H49.804V58.2626C49.804 56.4374 48.9205 55.5528 47.0943 55.5528C46.27 55.5528 45.1819 55.8477 44.6862 56.6713V52.9346H43.3018Z" fill="#0072AA"/>
<path fill-rule="evenodd" clip-rule="evenodd" d="M52.7023 58.0945V58.0437C52.7561 57.1387 53.3487 56.7168 54.5716 56.7168C55.7083 56.7168 56.2308 57.0828 56.2308 57.8708C56.2308 58.5419 55.5251 58.6334 54.5446 58.7656C54.2699 58.8012 53.9844 58.8419 53.6827 58.8978C52.3359 59.1418 51.0215 59.518 51.0215 61.1856C51.0215 62.5023 51.9966 63.2853 53.6342 63.2853C54.7278 63.2853 55.6275 62.9294 56.3008 62.2329C56.3547 63.0921 56.9311 63.2853 57.4267 63.2853C57.82 63.2853 58.1217 63.2192 58.3641 63.0819L58.391 63.0667V62.0295L58.3156 62.0549C58.1432 62.116 58.0301 62.121 57.9493 62.121C57.6207 62.121 57.6045 61.9533 57.6045 61.3534V57.6065C57.6045 56.2287 56.6348 55.5576 54.647 55.5576C53.4403 55.5576 51.4094 55.8779 51.3178 58.0386V58.0945H52.7023ZM53.9144 62.116C53.478 62.116 52.476 62.0194 52.476 61.0941C52.476 60.1688 53.2356 59.9654 53.9844 59.8434C54.2106 59.8027 54.4477 59.7773 54.6739 59.7468C55.2773 59.6756 55.8376 59.6045 56.2146 59.3909C56.2146 59.3909 56.247 59.3757 56.2146 59.3909V60.5145C56.2146 61.1297 55.5897 62.1109 53.9144 62.1109V62.116Z" fill="#0072AA"/>
<path fill-rule="evenodd" clip-rule="evenodd" d="M97.4186 63.1123V52.9443H96.0287V56.6201C95.4415 55.8371 94.391 55.5524 93.5614 55.5524C91.3904 55.5524 89.9844 57.0573 89.9844 59.3959C89.9844 60.4585 90.3022 61.4346 90.8894 62.1158C91.5305 62.8733 92.4624 63.2801 93.5991 63.2801C94.7358 63.2801 95.6085 62.8937 96.0341 62.2226V63.1123H97.424H97.4186ZM93.7769 62.1158C92.1608 62.1158 91.4443 60.7889 91.4443 59.4823C91.4443 58.6536 91.6652 56.7166 93.7069 56.7166C95.9048 56.7166 96.0772 58.7909 96.0772 59.4264C96.0772 60.7279 95.4738 62.1209 93.7823 62.1209L93.7769 62.1158Z" fill="#0072AA"/>
<path fill-rule="evenodd" clip-rule="evenodd" d="M74.6469 60.8197C74.4098 61.6586 73.7418 62.1162 72.7345 62.1162C72.0234 62.1162 71.4254 61.9077 71.016 61.5061C70.6012 61.0943 70.3803 60.4994 70.3911 59.8284H76.1607V59.7775C76.2199 58.4659 75.7943 57.2152 75.0186 56.4577C74.4045 55.8578 73.5964 55.5527 72.6106 55.5527C70.4773 55.5527 68.9258 57.1644 68.9258 59.3962C69.0066 61.867 70.3803 63.2804 72.686 63.2804C74.4529 63.2804 75.665 62.3856 76.026 60.8197H74.6469ZM72.5351 56.717C73.6934 56.717 74.6038 57.5507 74.6954 58.6692H70.3965C70.4988 57.6829 71.1937 56.717 72.5405 56.717H72.5351Z" fill="#0072AA"/>
<path fill-rule="evenodd" clip-rule="evenodd" d="M87.5604 60.835C87.318 61.6637 86.6392 62.1162 85.6426 62.1162C84.9315 62.1162 84.339 61.9077 83.9295 61.5061C83.504 61.0943 83.2885 60.4994 83.2992 59.8284H89.0742V59.7775C89.1335 58.4659 88.7025 57.2152 87.9321 56.4577C87.3234 55.8578 86.5046 55.5527 85.5295 55.5527C83.3908 55.5527 81.8447 57.1644 81.8447 59.3962C81.9255 61.867 83.2939 63.2804 85.6049 63.2804C87.3665 63.2804 88.5732 62.3907 88.9395 60.835H87.5658H87.5604ZM85.4541 56.717C86.6069 56.717 87.5281 57.5507 87.6143 58.6692H83.3046C83.407 57.6829 84.1073 56.717 85.4541 56.717Z" fill="#0072AA"/>
<path fill-rule="evenodd" clip-rule="evenodd" d="M60.9865 63.1171V59.8176C60.9865 57.845 61.8592 56.9248 63.7232 56.9248H63.7824V55.5521H63.7286C62.4303 55.5115 61.5576 55.9995 60.9165 57.1383V55.7098H59.6074V63.1171H60.9919H60.9865Z" fill="#0072AA"/>
<path fill-rule="evenodd" clip-rule="evenodd" d="M78.9084 63.112V59.8176C78.9084 57.845 79.7757 56.9248 81.645 56.9248H81.7043V55.5521H81.6504C80.3467 55.5115 79.4794 55.9995 78.8384 57.1383V55.7148H77.5293V63.112H78.9138H78.9084Z" fill="#0072AA"/>
<path fill-rule="evenodd" clip-rule="evenodd" d="M68.232 61.9581H67.2515C66.5889 61.9581 66.3142 61.5616 66.3142 60.9769V56.8792H68.232V55.7201H66.3142V53.5391H64.9297V60.9617C64.9297 62.5377 65.7647 63.2037 67.2461 63.2037H68.232V61.9581Z" fill="#0072AA"/>
<path fill-rule="evenodd" clip-rule="evenodd" d="M110.661 65.8884C109.718 66.4222 108.857 66.7374 107.957 66.7374C105.63 66.7374 103.68 64.9377 103.566 62.7719L108.108 60.2197L115.165 63.1989L110.661 65.8935V65.8884Z" fill="#72B0D2"/>
<path fill-rule="evenodd" clip-rule="evenodd" d="M113.359 54.9225L109.986 53.5193C108.478 52.8838 107.056 52.3551 107.056 50.7892C107.056 49.9758 107.314 49.5538 107.729 49.1318L114.862 52.1009L113.095 53.0618C112.61 53.3465 112.27 53.5905 112.27 53.9464C112.27 54.3277 112.734 54.653 113.359 54.9225Z" fill="#A5D1A1"/>
<path fill-rule="evenodd" clip-rule="evenodd" d="M116.668 40.2396L113.21 42.2173C112.903 42.3901 112.493 42.6748 112.493 43.107C112.493 43.6001 113.291 43.9814 114.002 44.2966L109.676 42.4969C108.405 41.9681 107.128 41.3682 107.128 39.9193C107.128 39.3092 107.316 38.8161 107.613 38.3941L116.959 33C118.08 33.5999 119.168 34.8099 119.168 36.4368C119.168 38.1755 118.236 39.3448 116.663 40.2345L116.668 40.2396Z" fill="#72B0D2"/>
<path fill-rule="evenodd" clip-rule="evenodd" d="M124.021 46.6154L123.165 47.0729L116.021 44.0988L124.323 39.3809C125.444 39.9909 126.542 41.1908 126.542 42.8176C126.542 44.5564 125.632 45.7562 124.021 46.6154Z" fill="#A5D1A1"/>
<path fill-rule="evenodd" clip-rule="evenodd" d="M117.993 52.3396L122.217 54.0884C123.8 54.7595 124.285 55.5425 124.285 56.5338C124.285 57.0982 123.946 57.6625 123.461 58.054L116.355 55.0747L117.557 54.4392C118.575 53.9105 118.909 53.5902 118.909 53.2394C118.909 52.8886 118.672 52.6293 117.988 52.3345L117.993 52.3396Z" fill="#72B0D2"/>
<path fill-rule="evenodd" clip-rule="evenodd" d="M125.525 67.0579C123.726 65.7514 121.808 64.8667 119.481 63.8703L108.707 59.371C106.002 58.2322 104.203 56.7171 104.203 54.1599C104.203 51.6026 105.474 50.474 107.134 49.4877L107.732 49.1318C107.322 49.5538 107.058 49.9809 107.058 50.7892C107.058 52.3551 108.48 52.8838 109.989 53.5193L122.519 58.7304C124.701 59.615 126.694 61.1351 126.694 63.7229C126.694 65.1464 126.123 66.4174 125.525 67.0529V67.0579Z" fill="#22AA47"/>
<path fill-rule="evenodd" clip-rule="evenodd" d="M124.253 57.596L123.467 58.0587C123.952 57.6672 124.291 57.1029 124.291 56.5386C124.291 55.5472 123.801 54.7643 122.222 54.0932L108.819 48.5262C106.115 47.3976 104.429 45.9385 104.429 43.3965C104.429 41.0578 105.662 39.5276 107.618 38.3989C107.316 38.8209 107.133 39.314 107.133 39.9241C107.133 41.3731 108.404 41.973 109.681 42.5017L122.707 47.9263C125.077 48.9177 126.995 50.4073 126.995 53.1374C126.995 55.2676 125.939 56.6097 124.253 57.596Z" fill="#0072AA"/>
</svg>
