<svg width="160" height="100" viewBox="0 0 160 100" fill="none" xmlns="http://www.w3.org/2000/svg">
<rect width="160" height="100" rx="16" fill="white"/>
<path d="M33.1674 24.9262L33.0114 21.0523L24.8965 29.402L16.8077 37.7516L20.2669 37.9087L33.1674 24.9262Z" fill="#002856"/>
<path d="M52.9344 37.7516L36.2625 21L36.2885 22.9631V24.9262L48.8769 37.9087L52.9344 37.7516Z" fill="#002856"/>
<path d="M36.2625 29.3758C35.1441 28.2765 34.754 27.9624 34.676 27.9624C34.5979 27.9624 34.2078 28.2765 33.7916 28.6691L33.0374 29.4282L33.1154 49.5301L34.702 51.1006L36.2625 49.5301V29.3758Z" fill="#002856"/>
<path d="M30.0203 46.3892C30.0203 35.7624 29.9943 32.6476 29.9423 32.6476C29.9163 32.6476 29.188 33.3282 28.3297 34.1657L26.7692 35.6839L26.8992 43.2483L30.0203 46.3892Z" fill="#002856"/>
<path d="M42.5047 35.6577L39.3836 32.5168V46.3892L42.5047 43.2483V35.6577Z" fill="#002856"/>
<path d="M20.2409 41.2852L16.5996 41.3114L32.9854 57.8013L33.1674 54.006L20.2409 41.2852Z" fill="#002856"/>
<path d="M53.0124 41.3114H48.8509L42.5307 47.6456L36.2365 54.006L36.3665 58.063L53.0124 41.3114Z" fill="#002856"/>
<path fill-rule="evenodd" clip-rule="evenodd" d="M49.6299 66.5296C50.5594 66.6075 51.4889 66.7114 51.6955 66.7894C51.902 66.8673 52.1344 67.3608 52.2119 67.8803C52.2893 68.3738 52.2635 68.8413 52.1602 68.9192C52.057 68.9712 51.5922 68.8413 51.1275 68.6595C50.6627 68.4517 49.8623 68.2439 49.3717 68.166C48.8811 68.0881 48.0033 68.192 47.4352 68.3998C46.8672 68.6076 46.1443 69.0231 45.7828 69.3348C45.4471 69.6725 45.0082 70.2959 44.8275 70.7634C44.6209 71.2309 44.466 72.14 44.466 72.7894C44.466 73.4387 44.6467 74.3998 44.8791 74.9193C45.0857 75.4647 45.5246 76.166 45.8344 76.5037C46.1443 76.8413 46.7381 77.2829 47.1254 77.4907C47.5127 77.6725 48.3906 77.8543 49.0619 77.8803C49.7332 77.9063 50.7402 77.7764 51.3082 77.5946C51.8762 77.4128 52.4959 77.1271 52.6766 76.9712C52.9348 76.7374 53.0123 76.7894 53.0123 77.1271C52.9865 77.3868 52.8057 77.9323 52.5992 78.3738C52.3668 78.8154 51.9279 79.231 51.5147 79.3349C51.1275 79.4387 49.9914 79.5426 48.9844 79.5167C47.5643 79.5167 46.8672 79.3608 45.7053 78.8154C44.6725 78.3219 43.9754 77.7504 43.4332 76.9972C42.9943 76.3998 42.5295 75.3089 42.3746 74.6076C42.1422 73.6206 42.1422 72.9193 42.3746 71.7504C42.5553 70.8933 42.9426 69.7764 43.2525 69.2829C43.5623 68.8153 44.2336 68.114 44.7242 67.7244C45.2148 67.3608 46.1443 66.9192 46.7898 66.7374C47.4352 66.5816 48.7004 66.4777 49.6299 66.5296ZM19.6017 66.8673C20.9959 66.8933 22.5968 66.9712 23.1648 67.0491C23.7328 67.127 24.7656 67.5426 25.4369 67.9842C26.3406 68.5556 26.8312 69.1011 27.2959 70.1141C27.7349 71.0491 27.9414 71.9322 27.9414 72.9193C27.9414 73.9063 27.7349 74.7634 27.2959 75.6985C26.8828 76.6076 26.289 77.3348 25.566 77.8543C24.9463 78.2959 24.1201 78.7634 23.6812 78.8933C23.2681 79.0232 21.6931 79.179 20.1955 79.231C18.698 79.2829 17.2521 79.2569 16.9681 79.153C16.6066 79.0232 16.555 78.9193 16.7873 78.8154C17.0197 78.6595 17.0972 77.231 17.0972 73.0491C17.0972 68.8413 17.0197 67.4127 16.7873 67.3088C16.555 67.179 16.5291 67.1011 16.7615 66.9712C16.9164 66.8933 18.2074 66.8413 19.6017 66.8673ZM32.15 67.205C32.3049 66.8933 32.1242 66.8153 31.2463 66.7894C30.6267 66.7634 29.9037 66.8413 29.6197 66.9192C29.2582 67.0491 29.2066 67.153 29.439 67.2829C29.6713 67.4127 29.7488 68.8413 29.7488 73.0491C29.7488 77.231 29.6713 78.6855 29.439 78.8154C29.2582 78.9193 29.8004 79.0751 30.6525 79.179C31.5045 79.2569 32.2275 79.2829 32.2791 79.231C32.3049 79.179 32.2275 78.9193 32.0726 78.6336C31.9176 78.3219 31.8402 75.9842 31.8918 72.8413C31.9176 69.9582 32.0467 67.4127 32.15 67.205ZM41.6258 66.6855V67.8543C41.6258 68.9972 41.6258 69.0231 41.0578 68.6335C40.6963 68.3998 39.8701 68.2439 37.4947 68.2439V71.8803H40.593V73.4387L37.4947 73.0491V75.7764C37.4947 77.6206 37.598 78.6076 37.8303 78.8154C38.0885 79.1011 37.9594 79.153 37.2365 79.179C37.0358 79.1896 36.7963 79.2003 36.5567 79.2109L36.5566 79.2109C36.2106 79.2262 35.8645 79.2416 35.6357 79.2569C35.0676 79.2569 34.9644 79.179 35.1193 78.8933C35.2226 78.6855 35.3258 76.14 35.3775 73.2309C35.4033 70.1141 35.3258 67.7764 35.1709 67.4647C34.9385 66.9712 35.016 66.9452 37.3139 66.8673C38.6307 66.8413 40.1283 66.7894 41.6258 66.6855ZM21.3829 68.2958C22.5964 68.3997 23.3969 68.6074 23.8358 68.9451C24.1973 69.2048 24.7137 69.7763 25.0235 70.1919C25.3075 70.6074 25.6173 71.4646 25.7464 72.1139C25.8497 72.8412 25.8239 73.7243 25.6432 74.4516C25.4366 75.1529 24.9977 75.9321 24.5071 76.3997C24.0682 76.8153 23.2161 77.3347 22.6739 77.4906C22.1059 77.6724 21.0989 77.8282 19.1883 77.8282L19.1366 73.2049C19.1108 70.6594 19.2141 68.4776 19.3432 68.3737C19.4723 68.2438 20.4018 68.2178 21.3829 68.2958Z" fill="#002856"/>
<line x1="64.3915" y1="21" x2="64.3915" y2="79.5206" stroke="black" stroke-width="0.650228"/>
<path fill-rule="evenodd" clip-rule="evenodd" d="M77.3678 24.3554L75.1485 24.2515V32.9598C78.5166 32.7519 79.7175 32.5179 80.3442 32.206C80.8924 31.946 81.5974 31.3741 81.9107 30.9322C82.2501 30.4383 82.4851 29.6064 82.5373 28.7226C82.6156 27.5528 82.5112 27.1369 82.0151 26.4091C81.6757 25.9151 80.9969 25.2653 80.5008 24.9793C79.822 24.5894 78.9865 24.4334 77.3678 24.3554ZM91.9886 24.3035H90.6831V32.8818C93.3723 32.8818 94.3906 32.7259 94.8605 32.4919C95.2783 32.2839 95.8265 31.842 96.0354 31.5301C96.2443 31.2181 96.427 30.3863 96.427 29.7104C96.427 29.0346 96.2704 28.2027 96.0615 27.8908C95.8526 27.5788 95.3566 27.1369 94.9388 26.955C94.5472 26.773 93.9206 26.669 93.5551 26.747C93.1896 26.825 92.7457 27.1369 92.563 27.4229C92.2758 27.9168 92.3019 27.9428 93.0851 27.7868C93.7901 27.6568 94.0511 27.7348 94.5472 28.2547C94.9388 28.6706 95.1216 29.1905 95.1216 29.8924C95.1216 30.5683 94.965 31.0882 94.6778 31.3741C94.4167 31.5821 93.8945 31.868 93.4768 31.946C93.0851 32.05 92.5891 32.05 92.3802 31.972C92.0408 31.868 91.9886 31.1921 91.9886 28.0727V24.3035ZM104.521 24.5634C104.808 24.5634 105.095 24.7454 105.173 24.9533C105.252 25.1873 105.252 25.5252 105.173 25.7332C105.095 25.9671 104.834 26.1231 104.573 26.1491C104.338 26.1491 103.972 25.9931 103.816 25.8112C103.581 25.5772 103.581 25.3433 103.764 25.0313C103.894 24.7714 104.233 24.5634 104.521 24.5634ZM89.0383 27.2929C88.9861 26.903 88.8294 26.799 88.255 26.851L87.524 26.929C87.7851 30.6203 87.7329 31.2961 87.4979 31.5301C87.3151 31.7121 86.8713 31.868 86.5058 31.868C86.1403 31.868 85.6703 31.6861 85.4614 31.4261C85.2526 31.1921 85.0437 30.5683 85.0176 30.0484C85.0028 29.7685 84.988 29.3469 84.9732 28.9252V28.9251L84.9732 28.9249C84.9619 28.6024 84.9506 28.2798 84.9393 28.0208C84.9393 26.955 84.9132 26.903 84.0777 26.903C83.3989 26.903 83.2944 26.9809 83.5816 27.2409C83.7644 27.4489 83.8949 28.2807 83.8949 29.4505C83.8949 30.4903 84.0255 31.6081 84.1821 31.92C84.3649 32.232 84.626 32.5959 84.7826 32.6999C84.9393 32.8038 85.4614 32.8818 85.9053 32.8818C86.3752 32.8818 87.0018 32.7778 87.289 32.6219C87.6371 32.4486 87.8112 32.4486 87.8112 32.6219C87.8112 32.7778 88.1245 32.8818 88.5161 32.8818H89.2472C89.1427 28.9566 89.0644 27.5788 89.0383 27.2929ZM100.213 26.799C100.787 26.877 101.388 27.0849 101.57 27.2409C101.753 27.4229 101.936 28.4887 102.014 29.6324C102.119 31.2441 102.275 31.79 102.615 32.024C102.98 32.2839 103.006 32.4139 102.745 32.6739C102.51 32.9338 102.249 32.9598 101.701 32.7519C101.074 32.5179 100.996 32.3619 100.918 31.1402C100.865 29.7884 100.839 29.7884 100.134 29.9184C99.7428 29.9964 99.1684 30.2303 98.829 30.4383C98.5157 30.6463 98.2546 30.9322 98.2546 31.0622C98.2546 31.2181 98.4635 31.5301 98.6985 31.764C98.9596 31.998 99.4556 32.128 99.8473 32.076C100.448 31.998 100.5 32.05 100.317 32.4399C100.161 32.7345 99.7776 32.8818 99.1684 32.8818C98.5418 32.8818 98.0458 32.6999 97.6019 32.232C97.2364 31.894 96.9492 31.3481 96.9492 31.0622C96.9492 30.7762 97.1842 30.3083 97.4714 30.0224C97.7586 29.7364 98.4374 29.4505 98.9596 29.3725C99.5078 29.2945 100.187 29.0865 100.474 28.8786C100.944 28.5666 100.944 28.4887 100.604 28.0727C100.291 27.7348 99.9778 27.6828 99.2206 27.7868C98.4896 27.9168 98.2285 27.8648 98.2024 27.5788C98.1763 27.3709 98.3852 27.0849 98.6724 26.929C98.9335 26.773 99.6384 26.721 100.213 26.799ZM104.965 27.2929C104.912 26.903 104.73 26.799 104.181 26.851C103.607 26.903 103.502 27.0069 103.711 27.3709C103.842 27.6308 103.92 28.9566 103.894 30.3603L103.868 32.8818H105.173C105.069 28.9566 104.991 27.5788 104.965 27.2929ZM75.0441 38.7307L75.749 38.7827C75.8394 38.7887 75.9339 38.7947 76.0284 38.8007C76.3436 38.8207 76.6588 38.8407 76.8195 38.8607C77.1328 38.8607 77.1328 38.9387 76.8978 39.1986C76.6628 39.4066 76.5845 40.5764 76.5845 42.8379C76.5845 44.6576 76.689 46.3733 76.8456 46.6592C77.0806 47.1531 77.0023 47.1791 75.8535 47.2051C74.8614 47.2051 74.6786 47.1531 74.9658 46.8672C75.2008 46.6332 75.253 45.5934 75.1747 42.63L75.0441 38.7307ZM142.744 47.2051C142.639 40.5504 142.535 38.6267 142.43 38.6527C142.35 38.6527 142.13 38.7144 141.902 38.7784C141.834 38.7975 141.765 38.8168 141.699 38.8347C141.229 38.9907 141.177 39.2246 141.177 43.0979V47.2051H142.744ZM118.541 38.8867C118.567 38.8867 118.802 38.9387 119.063 39.0427C119.298 39.1206 119.481 39.3806 119.455 39.6146C119.429 39.8485 119.22 40.1864 119.011 40.3684C118.698 40.6284 118.515 40.6284 118.202 40.3684C117.993 40.1864 117.784 39.8485 117.758 39.6146C117.732 39.3806 117.888 39.1206 118.097 39.0427C118.191 39.0077 118.284 38.978 118.361 38.9536L118.361 38.9535C118.456 38.9233 118.527 38.901 118.541 38.8867ZM86.7408 40.3164C86.7408 39.7965 86.6363 39.4066 86.4797 39.4066C86.3491 39.4066 86.2186 39.6405 86.2186 39.9265C86.2186 40.2124 85.8792 40.7843 85.4353 41.2262C85.0176 41.6422 84.6521 42.0581 84.6521 42.1361C84.6521 42.1881 84.887 42.2661 85.1742 42.2661C85.6703 42.2661 85.6964 42.422 85.6964 44.3976C85.6964 46.3213 85.7747 46.6072 86.2969 47.0231C86.6102 47.2571 87.0541 47.4651 87.2629 47.4651C87.4979 47.4911 87.8112 47.3091 87.994 47.0751C88.255 46.7372 88.2289 46.6332 87.7329 46.4513C87.4196 46.3213 87.0541 46.0353 86.9496 45.8014C86.8452 45.5674 86.7408 44.6836 86.7408 43.8258V42.2661C88.4117 42.2661 88.5684 42.1621 88.5684 41.7461C88.5684 41.3042 88.4117 41.2262 87.6546 41.2262C86.793 41.2262 86.7408 41.1743 86.7408 40.3164ZM115.069 39.4066C115.356 39.4066 115.46 39.6665 115.46 40.3164C115.46 41.1483 115.539 41.2262 116.243 41.2262C116.87 41.2262 117.027 41.3302 117.027 41.7461C117.027 42.1361 116.87 42.2661 116.243 42.2661C115.486 42.2661 115.46 42.292 115.408 43.6698C115.382 44.4496 115.408 45.3595 115.486 45.6974C115.565 46.0613 115.852 46.3213 116.191 46.3473C116.574 46.3993 116.748 46.5726 116.713 46.8672C116.661 47.1531 116.374 47.3611 115.93 47.3871C115.46 47.4391 115.042 47.2571 114.677 46.8672C114.259 46.3993 114.155 45.9314 114.155 44.2677C114.155 42.656 114.103 42.2661 113.763 42.2661C113.554 42.2661 113.398 42.1621 113.398 42.0581C113.398 41.9541 113.685 41.5902 114.05 41.2782C114.39 40.9663 114.677 40.3944 114.677 40.0565C114.677 39.6405 114.834 39.4066 115.069 39.4066ZM78.9865 41.2262H78.2555V47.2051H79.822C79.7175 42.656 79.7437 42.5 80.2919 42.2401C80.6052 42.0841 81.1535 42.0061 81.4668 42.1101C81.7801 42.1881 82.1718 42.552 82.3023 42.9159C82.4589 43.2539 82.5895 44.2157 82.5895 45.0475C82.5895 45.8794 82.4328 46.6852 82.2762 46.8672C82.0151 47.1271 82.1979 47.2051 83.1117 47.2051C84.0516 47.2051 84.2082 47.1531 83.9471 46.8672C83.7383 46.6592 83.6077 45.8014 83.6077 44.3976C83.6077 42.5 83.5555 42.1881 83.0333 41.7202C82.6939 41.4342 82.0934 41.2003 81.5974 41.2003C81.1274 41.2262 80.5008 41.3302 80.2136 41.4862C79.8655 41.6595 79.6914 41.6595 79.6914 41.4862C79.6914 41.3302 79.3781 41.2262 78.9865 41.2262ZM92.1713 41.2262C93.0329 41.2262 93.4507 41.3822 94.0512 41.9281C94.4689 42.318 94.8866 42.9679 95.0955 44.0857H92.7457C90.7093 44.0857 90.396 44.1377 90.396 44.5276C90.396 44.7876 90.7093 45.3335 91.127 45.7494C91.7797 46.4253 91.9625 46.5032 93.2157 46.3993C94.1817 46.3213 94.5733 46.3733 94.5733 46.6072C94.5733 46.7892 94.2861 47.0491 93.9206 47.2051C93.5812 47.3351 92.9546 47.4651 92.563 47.4651C92.1713 47.4651 91.3098 47.2051 90.6831 46.8672C89.7693 46.4253 89.4299 46.0613 89.1427 45.2555C88.8294 44.4236 88.8294 44.0077 89.0644 43.2279C89.2472 42.604 89.6649 42.0841 90.2132 41.7461C90.7093 41.4342 91.5186 41.2262 92.1713 41.2262ZM96.7403 41.2262H96.0093V47.2051H97.5758C97.4453 44.2417 97.5236 43.1759 97.6802 42.8379C97.863 42.474 98.2285 42.2661 98.6202 42.2661C98.9857 42.2661 99.3512 42.1101 99.4556 41.9281C99.534 41.7461 99.4817 41.4862 99.299 41.3562C99.1075 41.1829 98.7507 41.2003 98.2285 41.4082C97.7586 41.6162 97.4453 41.6422 97.4453 41.4862C97.4453 41.3302 97.132 41.2262 96.7403 41.2262ZM100.709 41.2262H101.44C101.831 41.2262 102.145 41.3302 102.145 41.4862C102.145 41.6595 102.319 41.6595 102.667 41.4862C102.954 41.3302 103.581 41.2262 104.051 41.2262C104.573 41.2262 105.121 41.4602 105.487 41.7981C106.009 42.318 106.087 42.63 106.087 44.4756C106.061 45.8014 106.192 46.6592 106.401 46.8672C106.662 47.1531 106.505 47.2051 105.617 47.2051C104.599 47.2051 104.521 47.1531 104.756 46.6852C104.912 46.3993 105.043 45.6454 105.043 45.0475C105.043 44.4496 104.912 43.5658 104.782 43.0979C104.599 42.578 104.286 42.1881 103.92 42.1101C103.607 42.0061 103.085 42.0581 102.798 42.1881C102.51 42.344 102.197 42.8379 102.093 43.3318C101.988 43.7998 101.884 44.5796 101.884 45.0475C101.884 45.5154 102.014 46.1913 102.145 46.5552C102.406 47.1791 102.38 47.2051 101.309 47.2051C100.396 47.2051 100.265 47.1531 100.526 46.8932C100.761 46.6332 100.839 45.7754 100.787 43.8777L100.709 41.2262ZM111.544 41.7461C111.178 41.3822 110.682 41.2262 109.899 41.2262C109.064 41.2262 108.698 41.3562 108.463 41.7461C108.176 42.2401 108.202 42.2661 109.142 42.1101C109.873 42.0061 110.238 42.0841 110.604 42.448C110.97 42.8379 110.996 42.9679 110.735 43.2019C110.526 43.3578 109.795 43.6438 109.064 43.8258C108.359 43.9817 107.602 44.2677 107.419 44.4236C107.236 44.6056 107.079 45.0995 107.105 45.5154C107.105 45.9573 107.314 46.5032 107.549 46.7372C107.81 46.9972 108.411 47.2831 108.855 47.3871C109.455 47.543 109.795 47.4911 110.108 47.2051C110.343 46.9972 110.526 46.7372 110.526 46.6332C110.5 46.5032 110.134 46.3993 109.69 46.3733C109.22 46.3213 108.724 46.0873 108.568 45.8534C108.359 45.5154 108.385 45.3075 108.672 44.9955C108.907 44.7876 109.507 44.5276 110.056 44.4236L111.048 44.2157C111.022 46.8412 111.1 46.9712 111.753 47.2051C112.301 47.4391 112.562 47.3871 112.849 47.0751C113.215 46.7372 113.189 46.6332 112.667 46.2953C112.144 45.9573 112.066 45.6974 112.066 44.0857C112.066 42.604 111.962 42.1621 111.544 41.7461ZM117.94 41.2262H119.376L119.507 47.2051L118.463 47.2311C117.627 47.2311 117.497 47.1791 117.758 46.8932C117.993 46.6592 118.071 45.8014 118.019 43.9037L117.94 41.2262ZM125.851 41.7461C125.329 41.4342 124.572 41.2262 123.945 41.2262C123.371 41.2522 122.718 41.3302 122.509 41.4082C122.301 41.4862 121.857 41.7981 121.517 42.0841C121.204 42.396 120.812 43.0979 120.682 43.6178C120.473 44.3457 120.525 44.8136 120.812 45.5154C121.021 46.0093 121.517 46.6332 121.909 46.8672C122.327 47.1531 123.11 47.3351 123.841 47.3351C124.703 47.3351 125.303 47.1531 125.825 46.7892C126.217 46.4773 126.713 45.7754 126.922 45.2295C127.209 44.4236 127.235 44.0077 127 43.2279C126.791 42.604 126.4 42.0841 125.851 41.7461ZM128.123 41.2262H128.854C129.246 41.2262 129.559 41.3302 129.559 41.4862C129.559 41.6595 129.733 41.6595 130.081 41.4862C130.368 41.3302 130.995 41.2262 131.465 41.2003C131.935 41.2003 132.561 41.4342 132.901 41.7202C133.397 42.1881 133.475 42.526 133.475 44.2157C133.475 45.2815 133.606 46.3993 133.736 46.6852C133.971 47.1531 133.919 47.2051 132.901 47.2051C132.013 47.2051 131.83 47.1531 132.065 46.8932C132.222 46.6852 132.3 45.8014 132.274 44.8656C132.222 43.9297 132.117 42.9679 132.039 42.708C131.961 42.474 131.647 42.1881 131.334 42.1101C130.995 42.0061 130.473 42.0841 130.159 42.2401C129.585 42.5 129.559 42.656 129.689 47.2051H128.123V41.2262ZM138.88 41.6682C138.514 41.3822 137.887 41.2003 137.209 41.2003C136.504 41.2003 136.086 41.3562 135.982 41.6162C135.903 41.8241 135.825 42.0581 135.825 42.1361C135.825 42.1881 136.216 42.1881 136.686 42.1101C137.209 42.0321 137.731 42.1101 138.044 42.344C138.514 42.682 138.54 42.76 138.175 43.1499C137.966 43.3578 137.365 43.6178 136.869 43.7218C136.373 43.7998 135.694 44.0077 135.355 44.1637C135.016 44.3457 134.676 44.7616 134.598 45.1255C134.519 45.4894 134.624 46.0613 134.807 46.4253C135.042 46.8152 135.59 47.1791 136.164 47.3351C137.026 47.543 137.209 47.5171 137.705 46.9972L138.305 46.4253C136.869 46.4253 136.321 46.2693 136.086 46.0093C135.799 45.6974 135.773 45.4894 135.982 45.1515C136.138 44.9175 136.765 44.5796 137.365 44.3976L138.436 44.0857C138.436 46.7892 138.514 46.9712 139.088 47.2051C139.454 47.3351 139.872 47.4651 140.002 47.4651C140.159 47.4651 140.316 47.2571 140.394 46.9972C140.472 46.7632 140.368 46.4253 140.159 46.2953C139.898 46.1133 139.715 45.3595 139.611 44.0857C139.48 42.5 139.323 42.0321 138.88 41.6682ZM74.7047 53.184H79.4304L79.4565 54.0418C79.4565 54.7177 79.3781 54.8217 79.1171 54.5617C78.9343 54.3798 78.2816 54.2238 76.5584 54.2238V56.5633H77.6028C78.5166 56.5633 78.6471 56.6413 78.6471 57.1612C78.6471 57.6811 78.5427 57.7331 76.4279 57.5511L76.689 61.7624H75.1224L75.2269 58.0711C75.3052 55.5495 75.2269 54.1718 75.018 53.7819L74.7047 53.184ZM119.899 57.0832V53.184C118.41 53.184 118.384 53.236 118.567 53.9638C118.672 54.4057 118.75 56.3294 118.75 58.253L118.724 61.7624C119.977 61.7624 120.134 61.6584 120.029 61.3724C119.951 61.1645 119.899 59.2148 119.899 57.0832ZM81.0752 53.4959C81.4929 53.5479 81.6496 53.7559 81.6496 54.2238C81.6496 54.6917 81.4929 54.8737 81.0752 54.9256C80.7097 54.9776 80.4225 54.8217 80.318 54.5357C80.2397 54.3018 80.2397 53.9378 80.3442 53.7559C80.4225 53.5479 80.7619 53.4439 81.0752 53.4959ZM110.63 54.2238C110.63 53.7559 110.473 53.5479 110.056 53.4959C109.742 53.4439 109.403 53.5479 109.325 53.7559C109.22 53.9378 109.22 54.3018 109.299 54.5357C109.403 54.8217 109.69 54.9776 110.056 54.9256C110.473 54.8737 110.63 54.6917 110.63 54.2238ZM81.6757 56.1734C81.7279 56.4594 81.8062 57.8371 81.9107 61.7624H80.3442V58.8249C80.3442 55.9655 80.3703 55.9135 80.9708 55.7835C81.4407 55.6535 81.5974 55.7575 81.6757 56.1734ZM85.7486 55.7315C85.2265 55.9395 84.7304 55.9914 84.6521 55.8615C84.5737 55.7575 84.2082 55.6795 83.8166 55.7055C83.2683 55.7575 83.1639 55.8615 83.3727 56.0954C83.5294 56.3034 83.6077 57.4992 83.5555 59.0849L83.4772 61.7624C84.7826 61.7624 84.7826 61.7364 84.6782 59.7347C84.626 58.539 84.7043 57.4992 84.887 57.1352C85.0959 56.6933 85.4092 56.5633 86.088 56.5633C86.793 56.5633 87.0802 56.6933 87.289 57.1352C87.4718 57.4732 87.5501 58.565 87.4979 59.7347L87.3935 61.7624H88.96C88.8555 58.435 88.7511 57.2132 88.6989 56.8753C88.6206 56.5373 88.2028 56.1214 87.6546 55.8355C86.8452 55.4456 86.6102 55.4196 85.7486 55.7315ZM92.8763 55.6275C93.4507 55.7055 94.1295 55.9655 94.3906 56.2254C94.7561 56.5893 94.8605 57.1092 94.8605 58.565C94.8344 60.2027 94.9127 60.4886 95.3566 60.7226C95.6699 60.8525 95.8265 61.1385 95.7482 61.3724C95.6699 61.5804 95.3566 61.7624 95.0433 61.7624C94.7039 61.7364 94.2339 61.5544 93.9728 61.2944C93.6856 61.0085 93.529 60.4626 93.529 59.7347C93.529 58.6689 93.5029 58.6429 92.824 58.7989C92.4324 58.9029 91.8841 59.0589 91.6492 59.1888C91.3881 59.3188 91.1792 59.6568 91.1792 59.9427C91.1792 60.2286 91.4142 60.5666 91.7014 60.7226C91.9886 60.8525 92.4846 60.9825 92.824 60.9565C93.3462 60.9565 93.3723 61.0085 93.0068 61.3724C92.7979 61.6064 92.2497 61.7624 91.7797 61.7624C91.2836 61.7624 90.7093 61.5284 90.396 61.2425C90.1088 60.9565 89.8738 60.3586 89.8738 59.9427C89.8738 59.5008 90.0565 58.9809 90.2654 58.7729C90.4743 58.565 91.1009 58.305 91.6492 58.227C92.1713 58.149 92.8502 57.9671 93.1112 57.7851C93.4507 57.5771 93.5551 57.3172 93.4507 57.0053C93.3201 56.6933 93.0068 56.5633 92.3019 56.5893H91.0487C90.9181 56.5893 91.0226 56.3294 91.3098 56.0174C91.7536 55.5755 92.0408 55.4975 92.8763 55.6275ZM98.8029 55.7315C98.2807 55.9395 97.7847 55.9914 97.7064 55.8615C97.628 55.7575 97.2625 55.6795 96.8709 55.7055C96.3226 55.7575 96.2182 55.8615 96.427 56.0954C96.5837 56.3034 96.662 57.4992 96.6098 59.0849L96.5315 61.7624C97.8369 61.7624 97.8369 61.7104 97.7847 59.9947C97.7586 59.0329 97.8369 57.8891 97.9413 57.4732C98.098 56.8233 98.2807 56.6673 99.0379 56.6153C99.534 56.5893 100.082 56.6933 100.291 56.8753C100.526 57.1092 100.604 57.8371 100.578 59.4228L100.5 61.6324L102.014 61.7883C101.91 58.435 101.805 57.2132 101.753 56.8753C101.675 56.5373 101.257 56.1214 100.709 55.8355C99.8995 55.4456 99.6645 55.4196 98.8029 55.7315ZM106.662 55.5495C107.053 55.5235 107.549 55.5755 107.758 55.6535C107.967 55.7315 108.15 56.0174 108.15 56.3034C108.15 56.7713 108.045 56.7973 106.87 56.6673C105.774 56.5373 105.461 56.5893 104.965 57.0312C104.547 57.3952 104.364 57.8371 104.364 58.487C104.364 59.1369 104.573 59.6048 105.095 60.1247C105.722 60.7485 105.983 60.8265 107.236 60.7745C108.594 60.7225 108.672 60.7485 108.411 61.2425C108.202 61.6584 107.889 61.7624 106.844 61.7624C106.139 61.7624 105.173 61.5804 104.703 61.3724C104.233 61.1645 103.633 60.6186 103.346 60.1507C103.006 59.5528 102.902 59.0069 103.032 58.383C103.111 57.8891 103.398 57.1352 103.685 56.7453C103.972 56.3554 104.599 55.9395 105.069 55.8095C105.539 55.6795 106.27 55.5495 106.662 55.5495ZM110.891 61.7624C110.787 57.8371 110.708 56.4594 110.656 56.1734C110.578 55.7575 110.421 55.6535 109.951 55.7835C109.351 55.9135 109.325 55.9655 109.325 58.8249V61.7624H110.891ZM114.468 55.5235C114.886 55.5235 115.565 55.7055 115.982 55.9135C116.557 56.1994 116.792 56.4854 116.792 57.0053C116.802 57.1657 116.818 57.4274 116.835 57.7343L116.835 57.7355L116.836 57.7371L116.836 57.7398L116.836 57.74L116.836 57.7402L116.836 57.7404L116.836 57.7421L116.836 57.7432C116.861 58.1802 116.892 58.707 116.922 59.1628C117.001 60.1507 117.157 60.6706 117.497 60.9045C117.862 61.1385 117.888 61.2684 117.627 61.5544C117.366 61.7883 117.105 61.8143 116.583 61.6324C115.93 61.3724 115.852 61.2165 115.8 59.9947C115.747 59.2408 115.643 58.6429 115.539 58.6429C115.434 58.6429 114.886 58.7469 114.364 58.9029C113.815 59.0329 113.319 59.3448 113.241 59.5528C113.163 59.7607 113.371 60.1767 113.711 60.4886C114.05 60.8005 114.52 61.0085 114.86 60.9565C115.304 60.8525 115.356 60.9305 115.173 61.2944C115.016 61.6064 114.633 61.7624 114.024 61.7624C113.398 61.7624 112.902 61.5544 112.458 61.1125C112.092 60.7485 111.805 60.2546 111.805 59.9947C111.805 59.7607 111.962 59.3188 112.17 59.0329C112.379 58.6949 113.084 58.383 113.998 58.175C114.834 57.9931 115.539 57.6811 115.669 57.4472C115.773 57.1872 115.721 56.9273 115.46 56.7973C115.251 56.6413 114.625 56.5633 114.103 56.6153C113.554 56.6673 113.084 56.5633 113.058 56.4074C113.032 56.2514 113.189 55.9914 113.371 55.8355C113.58 55.6535 114.076 55.5235 114.468 55.5235ZM80.8663 67.6372C80.5791 67.5593 79.7698 67.4813 79.0387 67.4813C78.3338 67.4813 77.3417 67.6372 76.8456 67.8192C76.3495 68.0012 75.7229 68.4431 75.488 68.781C75.2269 69.145 74.9136 69.7428 74.7569 70.1328C74.6003 70.5227 74.4697 71.3545 74.4697 71.9524C74.4697 72.6283 74.7308 73.4861 75.0702 74.084C75.3835 74.6559 76.0623 75.3578 76.5584 75.6437C77.2372 76.0336 77.9422 76.1896 79.2737 76.1896C80.7358 76.1896 81.1013 76.0856 81.4146 75.6697C81.6235 75.3838 81.7801 75.0198 81.7801 74.8899C81.7801 74.7339 81.258 74.7599 80.3964 74.9938C79.1693 75.3058 78.9604 75.3058 78.0205 74.8639C77.4461 74.5779 76.7673 74.006 76.5062 73.5901C76.2451 73.1482 76.0362 72.3683 76.0362 71.8224C76.0362 71.3025 76.219 70.4967 76.4279 70.0808C76.6367 69.6389 77.185 69.119 77.6028 68.911C78.0466 68.703 78.6732 68.5211 79.0387 68.5211C79.4042 68.5211 80.0308 68.6251 80.4225 68.781C80.8141 68.911 81.1535 69.015 81.1796 68.963C81.2318 68.937 81.2841 68.651 81.3363 68.3391C81.3885 67.9752 81.2318 67.7412 80.8663 67.6372ZM97.4453 68.2611C97.6019 68.2611 97.7325 68.4691 97.7586 68.703C97.7847 68.963 97.8108 69.3529 97.8108 69.5609C97.8369 69.7948 98.1502 69.9768 98.6985 70.0028C99.3773 70.0548 99.534 70.1848 99.534 70.6527C99.534 71.1726 99.4295 71.2246 97.8369 71.0686L97.863 72.8363C97.863 73.8241 97.9413 74.7599 98.0458 74.9419C98.1502 75.1238 98.4635 75.2798 98.7507 75.2798C99.0379 75.2798 99.2729 75.3578 99.299 75.4618C99.299 75.5657 99.1162 75.7997 98.9074 75.9817C98.6463 76.1896 98.2546 76.2416 97.8108 76.1116C97.4192 76.0077 97.0275 75.7217 96.897 75.4618C96.7664 75.2278 96.662 74.136 96.662 73.0702C96.662 71.5105 96.5837 71.1206 96.2704 71.1206C96.0615 71.1206 95.8788 70.9386 95.8788 70.7307C95.8788 70.5227 96.0615 70.3407 96.2704 70.3407C96.4793 70.3407 96.7926 70.1068 96.9231 69.8208C97.0797 69.5349 97.1842 69.067 97.1842 68.781C97.1842 68.4951 97.3147 68.2611 97.4453 68.2611ZM87.524 70.8606C86.8713 70.1848 86.558 70.0808 85.4092 70.0808C84.2343 70.0808 83.9732 70.1848 83.2161 70.9646C82.5112 71.6925 82.3545 72.0564 82.3284 73.0442C82.3023 73.954 82.4589 74.422 82.955 75.0198C83.3727 75.4878 84.0516 75.9037 84.7304 76.0856C85.3309 76.2416 86.2447 76.2676 86.7408 76.1896C87.2368 76.0856 87.759 75.8777 87.8634 75.6957C87.9679 75.5397 88.0462 75.3058 88.0462 75.2018C88.0462 75.0978 87.4457 75.0978 86.6885 75.1758C85.4875 75.3318 85.2265 75.2798 84.626 74.7339C84.2343 74.37 83.8427 73.8501 83.7644 73.5121C83.6077 72.9402 83.6599 72.9402 85.9575 72.9402C87.607 72.9402 88.0986 72.9402 88.2451 72.7154C88.3073 72.62 88.3073 72.484 88.3073 72.2904C88.3073 71.9004 87.994 71.3025 87.524 70.8606ZM89.2211 70.0808H89.9521C90.3437 70.0808 90.657 70.1848 90.657 70.3407C90.657 70.514 90.8311 70.514 91.1792 70.3407C91.4664 70.1848 92.093 70.0808 92.563 70.0548C93.0329 70.0548 93.6856 70.2627 94.025 70.5227C94.5994 70.9386 94.6517 71.1466 94.6255 72.9922C94.5994 74.11 94.7039 75.2538 94.8344 75.5397C95.0694 76.0077 95.0172 76.0596 93.9989 76.0596C93.0851 76.0856 92.9546 76.0077 93.2157 75.7477C93.4507 75.5137 93.529 74.8119 93.4768 73.4861C93.4245 71.9524 93.3201 71.5365 92.8763 71.2246C92.5891 71.0166 92.1713 70.8606 91.9102 70.8606C91.6753 70.8606 91.2836 71.0686 91.0487 71.3025C90.6831 71.6925 90.6048 72.1604 90.7876 76.0596H89.2211V70.0808ZM101.179 70.0808H100.448L100.526 72.7323C100.578 74.6299 100.5 75.4878 100.265 75.7477C100.004 76.0077 100.134 76.0856 100.97 76.0596H102.014C101.91 72.4463 101.988 71.6665 102.223 71.4325C102.38 71.2506 102.798 71.0946 103.137 71.0946C103.555 71.1206 103.711 70.9646 103.711 70.6007C103.711 70.2368 103.555 70.0808 103.111 70.0808C102.798 70.0808 102.38 70.2108 102.197 70.3927C101.936 70.6527 101.884 70.6527 101.884 70.3927C101.884 70.2108 101.57 70.0808 101.179 70.0808ZM107.602 70.0808C108.724 70.0808 109.064 70.2108 109.716 70.8606C110.16 71.3285 110.5 71.9264 110.5 72.2904C110.5 72.9402 110.473 72.9402 108.15 72.9402C105.852 72.9402 105.8 72.9662 105.957 73.5381C106.035 73.8501 106.427 74.396 106.792 74.7339C107.393 75.2538 107.706 75.3318 108.855 75.2538C109.612 75.2018 110.238 75.1758 110.238 75.2278C110.238 75.2538 110.186 75.4618 110.108 75.6697C110.03 75.9037 109.507 76.1376 108.881 76.2156C108.254 76.3196 107.34 76.2676 106.844 76.1116C106.348 75.9557 105.617 75.4878 105.226 75.0458C104.625 74.396 104.495 74.006 104.521 73.0442C104.547 72.0564 104.703 71.6925 105.408 70.9646C106.166 70.1848 106.427 70.0808 107.602 70.0808ZM80.3186 26.357C79.7443 25.7071 79.3265 25.5252 78.2822 25.4212C77.5511 25.3432 76.8723 25.3952 76.7418 25.4992C76.6112 25.6032 76.5068 27.1109 76.5329 28.8265L76.5851 31.9719C78.5955 31.66 79.4571 31.4261 79.7704 31.2181C80.1098 31.0101 80.5275 30.5422 80.6842 30.1783C80.8669 29.8144 81.0236 28.9825 81.0236 28.3326C81.0236 27.4228 80.8669 26.9809 80.3186 26.357ZM93.0335 42.474C92.668 42.188 92.1719 41.9541 91.937 41.9801C91.6759 41.9801 91.2059 42.24 90.8926 42.5519L90.2921 43.1498C92.5375 43.2798 93.2946 43.2278 93.4251 43.1498C93.5818 43.0459 93.399 42.7339 93.0335 42.474ZM123.868 41.9801C124.129 41.9801 124.677 42.266 125.095 42.6039C125.643 43.0978 125.8 43.4618 125.8 44.2676C125.8 44.9435 125.617 45.4894 125.278 45.8533C124.964 46.1913 124.442 46.4252 123.972 46.4252C123.502 46.4252 122.954 46.1653 122.588 45.8273C122.171 45.4114 121.988 44.8915 121.962 44.1896C121.936 43.3838 122.092 43.0459 122.641 42.5779C123.032 42.24 123.581 41.9801 123.868 41.9801ZM87.1591 72.0044C86.2453 71.0945 85.697 70.8346 85.3576 70.8346C85.0443 70.8346 84.5221 71.0685 84.261 71.3545C83.9999 71.6404 83.8172 71.9264 83.8955 72.0044C83.9738 72.0824 84.731 72.1083 85.5926 72.0824L87.1591 72.0044ZM107.68 70.8346C107.968 70.8346 108.438 71.0945 109.351 72.0044L107.785 72.0824C106.923 72.1083 106.166 72.0824 106.088 71.9784C106.009 71.9004 106.244 71.6144 106.584 71.3285C106.923 71.0685 107.419 70.8346 107.68 70.8346Z" fill="#002856"/>
</svg>
