<svg width="150" height="74" viewBox="0 0 150 74" fill="none" xmlns="http://www.w3.org/2000/svg">
<path fill-rule="evenodd" clip-rule="evenodd" d="M65.7476 16.0022C65.9731 16.0177 66.1934 16.0639 66.3522 16.1307C66.4854 16.1923 66.7108 16.3516 66.8543 16.4852C66.9978 16.6239 67.2488 16.927 67.4076 17.1684C67.5716 17.4099 67.8534 17.8569 68.0378 18.1702C68.2223 18.4785 68.6168 19.1618 68.9139 19.6858C69.206 20.2098 69.9181 21.5044 70.4971 22.5627C71.076 23.621 71.655 24.6896 72.0239 25.3883L71.7523 25.4705C71.6089 25.5116 71.4859 25.5424 71.4808 25.5321C71.4756 25.5219 70.994 24.7975 70.41 23.9241C69.8208 23.0456 69.1342 22.0284 68.8832 21.6637C68.627 21.2989 68.1198 20.5797 67.7509 20.0711C67.382 19.5625 66.885 18.946 66.6442 18.6942C66.3676 18.4066 66.1165 18.1959 65.9526 18.1137C65.8091 18.0469 65.6144 17.9904 65.5171 17.9904C65.4197 17.9904 65.2455 18.0212 65.1328 18.0572C65.0099 18.0932 64.8049 18.237 64.6205 18.4117C64.4514 18.571 63.7956 19.3364 62.0075 21.5147L61.5771 21.2578C61.3415 21.114 61.1468 20.9804 61.1417 20.9598C61.1365 20.9393 61.8384 19.9786 62.6992 18.833C63.6316 17.5846 64.3899 16.6239 64.5846 16.4441C64.7998 16.2386 64.9842 16.1153 65.1482 16.0639C65.2968 16.0177 65.5273 15.992 65.7476 16.0022ZM84.2689 16.0074C84.4533 16.0177 84.6941 16.069 84.8068 16.1204C84.9196 16.1718 85.1501 16.3516 85.3192 16.5263C85.4883 16.6958 86.0775 17.4356 86.6257 18.1651C87.1739 18.8946 87.8707 19.8193 88.173 20.2201C88.588 20.7698 88.7058 20.9598 88.6597 21.0009C88.6238 21.0318 88.424 21.1602 87.8297 21.5198L86.7025 20.1584C86.0826 19.4083 85.4627 18.6686 85.3192 18.5144C85.1706 18.35 84.9554 18.1805 84.8068 18.1086C84.6685 18.0469 84.4585 17.9904 84.3457 17.9904C84.233 17.9904 84.0178 18.0469 83.8744 18.1189C83.7156 18.1908 83.4543 18.3963 83.2596 18.5915C83.0649 18.7867 82.7011 19.2183 82.4449 19.5573C82.1888 19.8964 81.6354 20.6721 81.2102 21.2784C80.7901 21.8846 79.9857 23.0662 79.4272 23.8984C78.8688 24.7307 78.3872 25.4397 78.3564 25.4756C78.3103 25.527 78.254 25.527 78.0849 25.4756C77.9722 25.4397 77.8595 25.4037 77.8441 25.3883C77.8236 25.3729 78.1771 24.6793 78.628 23.8471C79.0737 23.0148 79.6988 21.8589 80.0164 21.2784C80.3341 20.6978 80.7798 19.9015 81.0053 19.506C81.2307 19.1104 81.6354 18.4168 81.907 17.9647C82.1734 17.5126 82.5013 17.0143 82.6294 16.8551C82.7575 16.7009 82.9419 16.5006 83.0393 16.4132C83.1366 16.3259 83.2954 16.218 83.3825 16.1718C83.4748 16.1255 83.6387 16.069 83.7412 16.0382C83.8488 16.0125 84.0844 15.9971 84.2689 16.0074ZM65.9782 21.2527C66.0192 21.263 66.1473 21.2835 66.26 21.304C66.3727 21.3246 66.5674 21.3914 66.6955 21.4582C66.8236 21.525 67.1105 21.7305 67.3359 21.9154C67.5613 22.0952 68.5092 23.0097 69.4365 23.9447C70.5176 25.0287 71.1068 25.6606 71.076 25.6914C71.0504 25.7171 70.9018 25.7839 70.4868 25.9534L69.3187 25.0184C68.6782 24.4995 67.8995 23.8882 67.5921 23.6518C67.2847 23.4155 66.9107 23.1689 66.7723 23.097C66.6289 23.0302 66.3778 22.948 66.2087 22.9121C65.9474 22.8607 65.8655 22.8658 65.6708 22.9377C65.5427 22.984 65.3531 23.1021 65.2455 23.2049C65.0611 23.3796 65.056 23.3847 64.9381 23.2922C64.8766 23.2409 64.6717 23.1073 64.477 22.9943C64.2875 22.8864 64.1337 22.7785 64.1337 22.7579C64.1337 22.7322 64.2208 22.609 64.3233 22.4754C64.4309 22.3367 64.641 22.0798 64.7998 21.9C64.9535 21.7202 65.1841 21.5147 65.3121 21.4376C65.4402 21.3657 65.6247 21.2938 65.722 21.2732C65.8194 21.2527 65.9372 21.2475 65.9782 21.2527ZM84.0127 21.2629C84.0844 21.2784 84.2074 21.3092 84.2945 21.3349C84.3816 21.3606 84.5404 21.4479 84.648 21.525C84.7556 21.602 85.0374 21.9051 85.2731 22.2031C85.6061 22.6244 85.6881 22.7579 85.6368 22.799C85.6061 22.835 85.3909 22.9737 84.7556 23.3693L84.5353 23.1741C84.4123 23.0559 84.2279 22.948 84.0998 22.9172C83.982 22.8864 83.7924 22.8812 83.6797 22.8966C83.567 22.9172 83.3569 22.9788 83.2186 23.0302C83.0751 23.0816 82.7985 23.2357 82.6038 23.3744C82.4091 23.5131 81.6047 24.1399 80.8208 24.7615C80.042 25.3883 79.3709 25.9123 79.335 25.9277C79.3043 25.938 79.1403 25.8866 78.6792 25.6708L80.4417 23.8984C81.41 22.9223 82.3732 21.9976 82.5833 21.8332C82.7933 21.6739 83.0546 21.4941 83.1673 21.4376C83.2801 21.376 83.4901 21.3092 83.6285 21.2835C83.7719 21.2629 83.941 21.2527 84.0127 21.2629ZM60.0452 22.4086C60.0657 22.4086 60.2604 22.4959 60.4756 22.6038C60.6908 22.7066 60.8752 22.8093 60.8855 22.835C60.8957 22.8555 60.8189 22.9634 60.5217 23.2871L60.1887 23.1484C60.0043 23.0765 59.8044 22.9943 59.743 22.9686C59.6251 22.9223 59.6251 22.9223 59.8147 22.6655C59.9172 22.5268 60.0196 22.4086 60.0452 22.4086ZM89.7612 22.4137C89.7868 22.4086 89.8842 22.5165 89.9815 22.6552C90.084 22.7888 90.1455 22.9121 90.125 22.9326C90.0994 22.948 89.8996 23.0405 89.2642 23.2871L89.1003 23.0919C89.0081 22.984 88.9312 22.871 88.921 22.8401C88.9159 22.8144 89.09 22.7066 89.3155 22.6038C89.5409 22.5011 89.7407 22.4137 89.7663 22.4137H89.7612ZM63.3242 23.9447C63.3857 23.9704 63.6009 24.068 64.1747 24.3351L63.8725 24.6434L63.4318 24.4636C63.1859 24.3659 62.981 24.2683 62.9707 24.2478C62.9605 24.2221 63.0066 24.1399 63.0783 24.0526C63.1859 23.9293 63.2269 23.9087 63.3242 23.9447ZM86.5693 23.8984C86.5847 23.8984 86.6564 23.9755 86.8767 24.2581L86.764 24.3043C86.6974 24.33 86.4976 24.4122 86.3131 24.4841C86.1287 24.556 85.9545 24.6177 85.9289 24.6177C85.9033 24.6177 85.8264 24.5612 85.7649 24.4892C85.6778 24.3916 85.6625 24.3505 85.7137 24.3248C85.7444 24.2992 85.9494 24.1964 86.1594 24.0937C86.3695 23.9909 86.5539 23.9036 86.5693 23.8984ZM58.1444 24.8848L58.3545 24.9619C58.4723 24.9978 58.6568 25.0544 58.7593 25.08C58.8668 25.1109 58.9539 25.1468 58.9539 25.1725C58.9539 25.1931 58.6619 25.5681 58.3033 26.0099C57.9395 26.4466 57.0839 27.4946 55.137 29.8578H54.4453L54.6093 29.6318C54.7015 29.5033 55.5366 28.3834 56.4588 27.1453L58.1444 24.8848ZM91.6518 24.89L93.2708 27.0528C94.1571 28.2395 94.9974 29.3544 95.3868 29.8527H94.6695L94.1879 29.2773C93.9266 28.9588 93.0607 27.9005 90.8064 25.152L91.6518 24.89ZM62.4942 26.2051L59.2152 29.8527H58.5492L58.8002 29.5342C58.9335 29.3544 59.6149 28.4913 60.3117 27.6076C61.0033 26.724 61.572 25.9842 61.572 25.9637C61.572 25.9431 61.7821 25.9894 62.4942 26.2051ZM88.1883 25.9534C88.2139 25.9534 88.3215 26.0613 88.424 26.1949C88.5213 26.3284 89.1976 27.1967 89.92 28.1214C90.6425 29.0461 91.2368 29.8167 91.2368 29.827C91.2368 29.8424 91.0933 29.8527 90.5963 29.8527L90.2889 29.5033C90.1199 29.3133 89.3923 28.5016 88.675 27.7053C87.9578 26.9038 87.3788 26.236 87.3891 26.2154C87.3993 26.2 87.5684 26.1332 87.7733 26.0716C87.9731 26.0099 88.1576 25.9585 88.1883 25.9534Z" fill="white"/>
<path fill-rule="evenodd" clip-rule="evenodd" d="M56.3467 18.2266C56.2186 18.1855 56.0034 18.1393 55.86 18.129C55.7217 18.1136 55.4911 18.129 55.3476 18.165C55.2093 18.1958 54.9685 18.3037 54.8148 18.4013C54.6252 18.5246 53.9899 19.1719 52.8115 20.4562C51.8637 21.4889 49.553 24.0113 47.6727 26.0714C45.7924 28.1264 44.2554 29.8166 44.2554 29.832C44.2554 29.8474 44.4347 29.8577 44.655 29.8577L45.0495 29.8526C48.7845 26.1639 50.6494 24.3247 51.6075 23.3846C52.5656 22.4496 53.5698 21.4786 53.8362 21.2371C54.1436 20.9597 54.4459 20.7388 54.656 20.6412C54.9378 20.5076 55.0454 20.4819 55.3733 20.4871C55.6346 20.4871 55.8702 20.5282 56.1162 20.6104C56.316 20.672 56.8847 20.9237 57.3868 21.1601C57.8837 21.3912 58.3039 21.5865 58.3192 21.5865C58.3346 21.5865 58.724 21.7714 59.1902 21.9975C59.6565 22.2235 60.0407 22.4085 60.051 22.4085C60.0561 22.4085 60.3276 22.5318 60.6504 22.6807C60.9732 22.8349 61.9671 23.3024 62.8535 23.7185C63.2949 23.9257 63.946 24.2324 64.6397 24.559L64.6437 24.5609L64.6454 24.5617L64.6486 24.5633L64.6518 24.5648C65.3475 24.8924 66.0849 25.2397 66.6961 25.5269C67.9206 26.1074 68.9811 26.6006 69.0529 26.6263C69.1604 26.6674 69.2424 26.6417 69.5242 26.4824C69.7138 26.3745 69.8726 26.2769 69.8726 26.2615C69.8726 26.2461 69.1553 25.8043 68.2741 25.2751C67.3929 24.746 66.2708 24.073 65.7892 23.7853C65.5204 23.6236 65.1142 23.3804 64.6947 23.1293L64.6925 23.128C64.353 22.9248 64.005 22.7165 63.7142 22.542C63.2943 22.2887 62.6537 21.9048 62.0361 21.5346C61.6892 21.3267 61.3496 21.1231 61.0603 20.9494C60.2559 20.4717 59.1134 19.7884 58.5242 19.4339C57.935 19.0846 57.2536 18.6838 57.0128 18.5451C56.772 18.4116 56.4748 18.2677 56.3467 18.2266ZM94.6189 18.2061C94.5215 18.1752 94.3473 18.1444 94.2346 18.1341C94.1219 18.1239 93.9118 18.129 93.7735 18.1495C93.63 18.1752 93.3995 18.242 93.2611 18.2985C93.1177 18.3602 91.7497 19.1616 90.2127 20.0812C88.6757 21.0059 87.0515 21.9769 86.6007 22.2441C86.1498 22.5112 85.5247 22.8862 85.2173 23.0763C84.9099 23.2664 83.6752 24.0062 82.4763 24.7203C81.2774 25.4344 80.222 26.0611 80.1297 26.1125C80.0426 26.169 79.9658 26.2255 79.9658 26.2512C79.9658 26.2718 80.1144 26.3745 80.2988 26.4824C80.4833 26.5852 80.6421 26.6725 80.6575 26.6725C80.6728 26.6725 80.8368 26.6006 81.0263 26.5132C81.1484 26.4553 81.5626 26.2599 82.0907 26.0109L82.0945 26.0091L83.1167 25.5269C84.0748 25.0748 84.9509 24.6689 85.0636 24.6175C85.1763 24.5662 85.4991 24.4172 85.7809 24.2836C85.9495 24.2037 86.2483 24.0613 86.5697 23.908L86.5717 23.9071L86.573 23.9065L87.2155 23.6003C87.7227 23.364 88.2299 23.1277 88.3426 23.0763C88.4345 23.0345 88.7101 22.9039 89.0086 22.7624L89.2136 22.6653C89.5825 22.4907 90.6994 21.9666 91.6985 21.4991C92.7488 21.0111 93.6813 20.6052 93.9016 20.5487C94.1782 20.4768 94.3729 20.4562 94.5932 20.4768C94.7777 20.4973 95.0236 20.5693 95.208 20.6566C95.3771 20.7388 95.6538 20.9289 95.8229 21.0727C95.9919 21.2217 97.6929 22.8811 99.6091 24.7665C101.52 26.6468 103.472 28.5631 103.949 29.0254L104.815 29.8577L105.588 29.832C104.709 28.8713 103.842 27.9237 102.999 27.0026L102.996 27L102.987 26.9901C101.526 25.3937 100.139 23.8773 98.8867 22.5112C96.5453 19.9476 95.208 18.5246 95.0441 18.4218C94.9109 18.3345 94.7162 18.2369 94.6189 18.2061ZM56.8334 22.5677C57.0589 22.5626 57.2689 22.6088 57.6276 22.7372C57.894 22.8297 60.0407 23.6877 62.3924 24.6381C64.744 25.5936 67.1726 26.5698 68.8992 27.2633V28.1623L68.6532 28.0853C68.52 28.039 68.228 27.9517 68.0026 27.8849C67.7771 27.8181 66.4399 27.4123 65.031 26.9807C63.622 26.5543 62.2131 26.1279 61.9057 26.0303C61.7359 25.9764 61.4269 25.8833 61.0799 25.7787L61.0795 25.7786L61.0793 25.7785L61.0792 25.7785L61.0782 25.7782C60.7974 25.6936 60.4918 25.6015 60.2149 25.5166L59.7485 25.3776C59.2663 25.234 58.8022 25.0957 58.601 25.0337C58.3346 24.9515 57.9401 24.8333 57.73 24.7717C57.52 24.71 57.2075 24.6432 57.0384 24.6227C56.8693 24.6021 56.6029 24.6073 56.4492 24.633C56.2955 24.6535 56.0291 24.7511 55.86 24.8384C55.6448 24.9566 55.0863 25.4447 53.8875 26.5749C52.9704 27.438 51.8176 28.5271 50.4291 29.8577H50.0551C49.8553 29.8577 49.6914 29.8371 49.6965 29.8115C49.7067 29.7858 51.0439 28.2702 52.6732 26.4362C54.3025 24.6021 55.7421 23.0147 55.8754 22.9119C56.0086 22.804 56.2084 22.6859 56.3211 22.6448C56.4338 22.6037 56.6644 22.5677 56.8334 22.5677ZM93.6915 22.7475C93.4661 22.6242 93.338 22.5934 93.0306 22.578C92.8051 22.5677 92.5644 22.5934 92.4414 22.6345C92.3287 22.6705 90.9351 23.2253 89.3417 23.8675C87.7483 24.5148 85.2122 25.5371 83.7059 26.1433C82.1996 26.7547 80.9495 27.2787 80.9239 27.3095C80.9034 27.3404 80.8931 27.5407 80.9034 27.7514C80.9136 27.962 80.9393 28.1315 80.9649 28.1315C80.9854 28.1281 81.9195 27.8459 83.2873 27.4328L83.2878 27.4327L83.2886 27.4324L83.289 27.4323L83.2903 27.4319L83.2929 27.4311C83.9749 27.2251 84.7642 26.9867 85.6016 26.7341C88.1223 25.9687 90.6482 25.2032 91.2118 25.0337C91.3986 24.9792 91.5854 24.9241 91.7564 24.8737L91.7565 24.8737C92.1012 24.7721 92.3814 24.6895 92.467 24.6689C92.5951 24.633 92.8615 24.6073 93.0562 24.6073C93.2868 24.6073 93.5173 24.6484 93.6966 24.7151C93.8503 24.7717 94.0706 24.8847 94.1834 24.9669C94.2961 25.0491 95.1824 25.8659 96.1559 26.7804C96.5756 27.1769 97.0238 27.601 97.4309 27.9862L97.4349 27.99L97.4472 28.0016L97.4497 28.004L97.451 28.0052C97.9795 28.5054 98.4361 28.9374 98.6664 29.1539L99.4093 29.8577C100.157 29.8628 100.173 29.8577 100.096 29.7704C100.082 29.7549 99.9589 29.616 99.7529 29.3836L99.7382 29.367L99.7203 29.3468L99.6812 29.3027L99.68 29.3013C99.1834 28.7409 98.2957 27.739 97.3035 26.6211C95.8126 24.9412 94.4498 23.4154 94.2807 23.2304C94.1065 23.0455 93.8401 22.8297 93.6915 22.7475ZM74.8167 25.496C75.0985 25.496 75.6314 25.5269 75.9951 25.568C76.364 25.6142 76.9276 25.7118 77.2504 25.794C77.5732 25.8762 78.0701 26.0303 78.3519 26.1331C78.6337 26.241 79.0692 26.431 79.3254 26.5543C79.5815 26.6828 79.9197 26.8626 80.3757 27.1349V28.3165L80.0785 28.4911C79.9197 28.5888 79.602 28.7583 79.3766 28.8713C79.1512 28.9792 78.7618 29.159 78.5056 29.2566C78.2494 29.3594 77.7781 29.5135 77.4553 29.5957C77.1325 29.683 76.6356 29.7909 76.3538 29.8371C76.0105 29.8937 75.5391 29.9245 74.9192 29.9245C74.2685 29.9296 73.8382 29.8988 73.459 29.8371C73.1619 29.7858 72.7827 29.7138 72.6137 29.6727C72.4446 29.6316 72.1218 29.5392 71.8964 29.4621C71.6709 29.3902 71.2662 29.2361 70.9998 29.123C70.7333 29.0049 70.3081 28.7994 70.0519 28.6607C69.7958 28.522 69.5498 28.373 69.4986 28.3267C69.4217 28.2548 69.4064 28.1572 69.4115 27.7257C69.4166 27.3147 69.432 27.1965 69.5037 27.1297C69.5498 27.0835 69.7496 26.9551 69.9495 26.842C70.1493 26.729 70.5387 26.5338 70.8204 26.4054C71.1022 26.2769 71.589 26.092 71.8964 25.9892C72.2038 25.8865 72.7008 25.758 72.9979 25.6964C73.2951 25.6399 73.7101 25.5731 73.9201 25.5474C74.1302 25.5217 74.5349 25.5012 74.8167 25.496ZM45.5362 31.476C44.988 31.4606 44.4193 31.44 44.2708 31.4297C44.1273 31.4143 43.9992 31.4143 43.989 31.4195C43.9787 31.4297 43.5842 31.4503 43.1026 31.4657C42.6261 31.4862 41.9447 31.5376 41.5912 31.5787C41.2377 31.625 40.5921 31.7328 40.1566 31.8202C39.7211 31.9075 39.0295 32.0873 38.6196 32.2209C38.2097 32.3545 37.6359 32.5805 37.3387 32.7244C37.0416 32.8631 36.5805 33.1251 36.314 33.3049C36.0476 33.4847 35.6582 33.7929 35.4482 33.9933C35.2432 34.1885 34.9666 34.4916 34.8385 34.6612C34.7155 34.8307 34.5208 35.1544 34.4132 35.3804C34.3005 35.6064 34.1673 35.9866 34.1058 36.2281C34.0085 36.6082 33.9982 36.7624 34.0239 37.4097C34.0392 37.9542 34.0802 38.2573 34.1571 38.5296C34.2186 38.73 34.3466 39.0691 34.444 39.2746C34.5465 39.4749 34.736 39.7934 34.8744 39.9784C35.0127 40.1633 35.2791 40.4613 35.4738 40.6411C35.6685 40.826 36.022 41.1035 36.2628 41.2576C36.5036 41.4117 36.9391 41.6532 37.2363 41.7919C37.5334 41.9357 38.0765 42.1464 38.4403 42.2645C38.8092 42.3878 39.3727 42.5419 39.6955 42.619C40.0183 42.6909 41.4836 42.9838 42.9489 43.2663C44.4142 43.554 45.8795 43.8571 46.2023 43.9393C46.5251 44.0266 46.9759 44.1859 47.2014 44.2887C47.4268 44.3965 47.7086 44.5558 47.8315 44.6483C47.9494 44.7356 48.1133 44.9154 48.2004 45.0541C48.2824 45.1877 48.3644 45.3881 48.3798 45.5011C48.3951 45.6141 48.3849 45.8247 48.3593 45.9634C48.3183 46.1484 48.2465 46.2922 48.0826 46.4772C47.9443 46.6364 47.7393 46.7906 47.5549 46.883C47.3909 46.9652 47.0784 47.0731 46.8683 47.1245C46.6583 47.1759 46.2638 47.2375 45.9974 47.2632C45.7309 47.2889 45.1674 47.3043 44.7421 47.294C44.322 47.2838 43.7533 47.2375 43.4869 47.1913C43.2204 47.1451 42.8516 47.0629 42.6671 47.0063C42.4827 46.9498 42.1855 46.8317 42.0062 46.7392C41.8269 46.6519 41.5656 46.4721 41.417 46.3436C41.2735 46.2152 41.0942 45.9943 41.0174 45.8556C40.9456 45.7169 40.8688 45.5216 40.8483 45.424C40.8278 45.3264 40.8073 45.1517 40.8022 45.0387L40.7868 44.8332L34.0085 44.8075C33.9982 44.9873 33.9982 45.1672 34.0034 45.3213C34.0085 45.4754 34.0341 45.7682 34.0648 45.9634C34.1007 46.1638 34.1776 46.4926 34.2442 46.6981C34.3108 46.8985 34.444 47.2221 34.5413 47.4173C34.6387 47.6074 34.8231 47.9105 34.9614 48.0955C35.0947 48.2804 35.3098 48.5424 35.4379 48.6811C35.566 48.8198 35.8581 49.0767 36.0835 49.2514C36.3089 49.4261 36.6317 49.6521 36.8008 49.7549C36.9698 49.8525 37.3029 50.0323 37.5437 50.1402C37.7845 50.2532 38.22 50.433 38.5171 50.5357C38.8143 50.6385 39.2395 50.7669 39.465 50.8234C39.6904 50.8851 40.1156 50.9724 40.4128 51.0289C40.71 51.0854 41.2274 51.1625 41.5656 51.2087C41.9293 51.255 42.8157 51.3012 43.743 51.3166C44.7114 51.332 45.6387 51.3218 46.1767 51.2858C46.6583 51.2498 47.3243 51.1882 47.6625 51.1471C48.0006 51.106 48.6103 51.0032 49.0202 50.921C49.4301 50.8388 50.0654 50.6744 50.4291 50.5563C50.798 50.4381 51.3155 50.248 51.5819 50.1299C51.8483 50.0117 52.2787 49.7805 52.5297 49.6264C52.7859 49.4672 53.1343 49.2103 53.3136 49.0613C53.4878 48.9123 53.7696 48.6298 53.9387 48.4294C54.1078 48.2342 54.3537 47.8746 54.4869 47.6331L54.7328 47.1964L54.7584 50.7669C54.9378 50.808 56.4236 50.8183 58.1809 50.8183H61.3677V44.2424C66.4911 44.2424 68.0845 44.2219 68.4124 44.191C68.725 44.1602 69.2424 44.0883 69.5652 44.0318C69.888 43.9701 70.4106 43.8417 70.718 43.7441C71.0305 43.6413 71.466 43.4667 71.6914 43.3536C71.9169 43.2406 72.2294 43.066 72.3831 42.9581C72.5368 42.8553 72.8032 42.6447 72.9672 42.4906C73.1362 42.3364 73.3822 42.0642 73.5205 41.8792C73.6588 41.6943 73.8843 41.3295 74.0124 41.0624L74.2532 40.5795L74.3044 50.7926C85.6477 50.7926 86.201 50.7823 86.8824 50.7001C87.2923 50.6488 87.902 50.546 88.2402 50.4741C88.5783 50.4073 89.1521 50.248 89.521 50.1247C89.8899 50.0066 90.4074 49.8011 90.6738 49.6778C90.9402 49.5545 91.3808 49.313 91.6473 49.1435C91.9137 48.9791 92.3082 48.6965 92.5182 48.527C92.7283 48.3523 93.0972 48.0081 93.3329 47.7564C93.5634 47.5047 93.8965 47.0937 94.0655 46.8368C94.2346 46.5799 94.4856 46.1484 94.624 45.8761C94.7623 45.5987 94.957 45.1261 95.0595 44.8229C95.1876 44.4376 95.2593 44.2938 95.29 44.3452C95.3105 44.3863 95.331 45.8402 95.331 47.5715C95.3361 49.2976 95.3464 50.7412 95.3618 50.7669C95.3771 50.8029 96.5145 50.8132 98.6561 50.808L101.92 50.7926L101.945 44.0369L105.045 44.0318L105.286 44.4516C105.56 44.927 105.72 45.2061 105.814 45.3726C105.855 45.4473 105.914 45.551 105.98 45.6682C106.1 45.8816 106.246 46.1398 106.362 46.3488C106.546 46.6724 107.176 47.7975 107.76 48.8404C108.345 49.8884 108.852 50.7566 108.883 50.7772C108.913 50.7977 110.558 50.8183 112.541 50.8183C114.518 50.8183 116.148 50.8029 116.158 50.7823C116.168 50.7566 115.174 49.1384 113.955 47.1861C112.73 45.2288 111.731 43.6157 111.731 43.6002C111.731 43.5848 111.808 43.5591 111.9 43.5437C111.987 43.5232 112.259 43.4256 112.5 43.3228C112.74 43.2201 113.12 43.0197 113.345 42.881C113.57 42.7372 113.944 42.4392 114.185 42.2131C114.421 41.9871 114.687 41.6994 114.78 41.571C114.872 41.4425 115.031 41.2011 115.123 41.0315C115.22 40.862 115.369 40.5384 115.456 40.3123C115.543 40.0863 115.656 39.7061 115.707 39.4646C115.779 39.1307 115.804 38.8122 115.799 38.1289C115.799 37.3891 115.779 37.1528 115.692 36.7932C115.63 36.5517 115.512 36.1716 115.425 35.9455C115.338 35.7195 115.128 35.3136 114.954 35.0465C114.78 34.7742 114.462 34.3889 114.247 34.1731C114.032 33.9625 113.693 33.6799 113.499 33.5515C113.299 33.4179 112.956 33.2176 112.73 33.1045C112.505 32.9915 112.115 32.8271 111.859 32.7398C111.608 32.6473 111.121 32.5189 110.783 32.4521C110.445 32.3853 109.917 32.3031 109.605 32.2774C109.236 32.2414 106.654 32.2209 102.176 32.2209H95.3105C95.3259 37.1785 95.3105 38.6529 95.2849 38.694C95.2542 38.7505 95.2132 38.6632 95.1312 38.4115C95.0748 38.2162 94.9314 37.8309 94.8135 37.5638C94.7008 37.2966 94.5164 36.9165 94.3985 36.7161C94.2858 36.5209 94.0399 36.151 93.8503 35.8941C93.6608 35.6373 93.2663 35.2006 92.9742 34.918C92.6822 34.6355 92.2364 34.2656 91.9803 34.0909C91.7292 33.9214 91.3245 33.6748 91.0837 33.5463C90.8429 33.4128 90.4074 33.2124 90.1102 33.0943C89.8131 32.9761 89.2956 32.8014 88.9574 32.7089C88.6193 32.6165 88.0557 32.4932 87.7022 32.4315C87.3487 32.375 86.7953 32.3031 86.4726 32.2723C86.1088 32.2414 83.6496 32.2209 80.0836 32.2209H74.2788L74.2532 35.8428C73.9714 35.2468 73.7869 34.9232 73.664 34.7382C73.541 34.5533 73.2797 34.2399 73.0799 34.0447C72.8801 33.8443 72.5778 33.5926 72.4087 33.4796C72.2396 33.3717 71.9066 33.1816 71.6658 33.0634C71.425 32.9453 71.0459 32.7911 70.8204 32.7192C70.595 32.6473 70.2722 32.5497 70.1032 32.5086C69.9341 32.4675 69.5755 32.3904 69.309 32.3442C68.8735 32.262 68.3151 32.2517 63.955 32.2363L62.318 32.2302C60.0978 32.2219 57.8776 32.2137 56.9257 32.2055L54.7584 32.1952L54.7328 36.4079C54.5176 35.7297 54.3742 35.3753 54.2666 35.1749C54.1641 34.9797 53.9797 34.6868 53.8618 34.5327C53.7389 34.3786 53.4725 34.0858 53.2675 33.8854C53.0575 33.6851 52.7142 33.4076 52.5041 33.2638C52.2941 33.1199 51.9149 32.899 51.6588 32.7757C51.4026 32.6473 50.9671 32.4572 50.6853 32.3493C50.4035 32.2466 49.9065 32.0925 49.5838 32.0103C49.261 31.9229 48.7435 31.8099 48.431 31.7585C48.1236 31.702 47.5702 31.6198 47.2014 31.5787C46.8376 31.5376 46.0844 31.4862 45.5362 31.476ZM36.3397 52.2105C36.5651 52.2054 36.8879 52.2311 37.0569 52.2619C37.226 52.2927 37.3848 52.3338 37.4053 52.3492C37.4258 52.3698 37.4463 52.5599 37.4463 52.7705C37.4463 52.9811 37.431 53.1609 37.4156 53.1712C37.4002 53.1764 37.3387 53.0839 37.2772 52.9657C37.2004 52.8322 37.0877 52.714 36.9545 52.6472C36.8008 52.565 36.6573 52.5393 36.3909 52.5393C36.1398 52.5393 35.9708 52.5701 35.8324 52.6421C35.7197 52.6986 35.5865 52.8167 35.5353 52.8989C35.484 52.9863 35.4431 53.1455 35.4431 53.2586C35.4431 53.387 35.484 53.5308 35.5558 53.6387C35.6429 53.7672 35.8427 53.9059 36.2884 54.1473C36.6266 54.3271 37.0211 54.5635 37.1594 54.6662C37.3336 54.7946 37.4617 54.9488 37.559 55.1389C37.6718 55.3598 37.6974 55.4831 37.6974 55.7502C37.6974 55.9608 37.6615 56.1612 37.6 56.2896C37.5488 56.4027 37.4412 56.5619 37.3592 56.6441C37.2772 56.7263 37.0826 56.8547 36.9289 56.9267C36.6727 57.0448 36.5856 57.0602 36.0322 57.0602C35.5558 57.0602 35.3457 57.0346 35.0947 56.9575C34.9205 56.901 34.7719 56.8342 34.7719 56.8034C34.7719 56.7966 34.7715 56.7788 34.771 56.7525C34.7695 56.6791 34.7668 56.5399 34.7668 56.3924C34.7668 56.1972 34.7668 56.0019 34.7719 55.9711C34.777 55.9351 34.8026 55.9146 34.8282 55.93C34.859 55.9454 34.9153 56.043 34.9614 56.1509C35.0024 56.2537 35.0793 56.3872 35.1254 56.4386C35.1715 56.49 35.315 56.5825 35.4431 56.639C35.6019 56.7109 35.7812 56.7417 36.0322 56.7417C36.2987 56.7417 36.4472 56.7109 36.6112 56.6287C36.729 56.5722 36.8725 56.4438 36.9289 56.3564C36.9903 56.2537 37.0313 56.0944 37.0313 55.9711C37.0313 55.8478 36.9903 55.6629 36.9442 55.5601C36.893 55.4574 36.77 55.3084 36.6727 55.2262C36.5753 55.1491 36.2628 54.959 35.981 54.8101C35.6992 54.6662 35.3662 54.4607 35.2381 54.358C35.1049 54.2501 34.9563 54.0703 34.8846 53.9213C34.7821 53.7107 34.7668 53.613 34.7873 53.3356C34.8077 53.0633 34.8436 52.9555 34.9768 52.7602C35.0844 52.6112 35.233 52.4828 35.3816 52.4058C35.5148 52.339 35.6941 52.2722 35.7761 52.2516C35.8632 52.2311 36.1142 52.2157 36.3397 52.2105ZM53.8362 52.3595C53.5391 52.2722 53.1855 52.2362 52.8628 52.2259C52.4478 52.2157 52.1967 52.2311 52.0174 52.2825C51.8791 52.3236 51.6844 52.4109 51.587 52.4777C51.4897 52.5393 51.377 52.6523 51.3257 52.7191C51.2796 52.7911 51.213 52.9298 51.1772 53.0274C51.1464 53.125 51.1208 53.3099 51.1208 53.4384C51.1208 53.5771 51.1669 53.7723 51.2438 53.9264C51.3155 54.0703 51.4692 54.2655 51.5922 54.3631C51.7151 54.4607 52.0328 54.6559 52.2992 54.7946C52.5656 54.9334 52.8833 55.1234 53.0062 55.2211C53.1241 55.3135 53.2573 55.4625 53.2983 55.5447C53.3392 55.632 53.3751 55.8067 53.3751 55.9454C53.3751 56.0944 53.3392 56.2485 53.2726 56.3564C53.2163 56.4438 53.0831 56.5619 52.9806 56.6184C52.873 56.6698 52.6834 56.7263 52.5554 56.7417C52.4273 56.7571 52.2121 56.7469 52.0686 56.7212C51.9303 56.6955 51.7305 56.6184 51.6331 56.5568C51.5255 56.4849 51.4026 56.3359 51.3309 56.1817C51.2643 56.043 51.1977 55.9197 51.1874 55.9043C51.1772 55.8889 51.1515 55.9043 51.131 55.9403C51.1106 55.9711 51.1003 56.192 51.1003 56.4283L51.1106 56.8547C51.5768 57.0037 51.9405 57.0602 52.2223 57.0705C52.6066 57.0911 52.8064 57.0808 53.0165 57.0191C53.1702 56.9729 53.4059 56.865 53.5442 56.7777C53.7286 56.6595 53.8157 56.5568 53.9233 56.3307C54.0258 56.1047 54.0617 55.9557 54.0565 55.7245C54.0565 55.4882 54.0207 55.3546 53.908 55.1337C53.8157 54.959 53.6672 54.7844 53.5032 54.6611C53.3649 54.5532 52.9704 54.322 52.6373 54.1422C52.1814 53.9059 51.9969 53.7774 51.9047 53.6439C51.8381 53.5411 51.7868 53.387 51.7868 53.2842C51.7868 53.1866 51.8278 53.0274 51.8791 52.9298C51.9303 52.8219 52.0481 52.7089 52.1711 52.6472C52.3197 52.5701 52.4734 52.5393 52.7347 52.5393C52.9909 52.5393 53.1548 52.5701 53.2983 52.6421C53.4263 52.7037 53.5442 52.8167 53.6057 52.9349C53.662 53.0428 53.7389 53.1301 53.7747 53.1301C53.8157 53.1301 53.8362 53.0171 53.8362 52.7448V52.3595ZM72.6137 52.2105C72.8698 52.2054 73.2131 52.2311 73.3822 52.2568C73.5512 52.2876 73.7152 52.3338 73.7408 52.3647C73.7716 52.3903 73.792 52.5701 73.792 52.7551C73.792 52.94 73.7716 53.1044 73.7408 53.1096C73.7152 53.1199 73.6383 53.0377 73.5769 52.9246C73.5 52.7962 73.377 52.678 73.2438 52.6061C73.0748 52.5239 72.9313 52.4931 72.6393 52.4931C72.3216 52.4879 72.214 52.5085 72.0245 52.6164C71.8861 52.6934 71.7273 52.8476 71.6248 53.0017C71.5326 53.1455 71.4148 53.387 71.3687 53.5411C71.302 53.7569 71.2816 54.0189 71.2816 54.62C71.2816 55.2262 71.302 55.4831 71.3687 55.6988C71.4199 55.853 71.5275 56.0893 71.6146 56.228C71.6966 56.3616 71.8656 56.5311 71.9835 56.6133C72.173 56.7366 72.2396 56.752 72.6393 56.752C72.962 56.752 73.1106 56.7314 73.1772 56.6749C73.2643 56.603 73.2643 56.5259 73.2336 55.7142C73.2182 55.1748 73.1772 54.7741 73.1414 54.6919C73.1055 54.62 73.0287 54.548 72.9723 54.5378C72.9159 54.5224 72.8237 54.5018 72.7674 54.4915C72.711 54.4813 72.6495 54.471 72.629 54.471C72.6034 54.4659 72.5983 54.4453 72.6137 54.4145C72.629 54.3837 72.9723 54.3631 73.4846 54.3631C74.1353 54.3631 74.3249 54.3785 74.3146 54.4299C74.3044 54.4607 74.2378 54.5018 74.1712 54.5172C74.1046 54.5326 74.0175 54.6046 73.9867 54.6713C73.9406 54.7587 73.9201 55.108 73.9201 56.8034L73.6537 56.8907C73.5051 56.9421 73.208 57.0037 72.9979 57.0397C72.7776 57.0705 72.4497 57.0859 72.2294 57.0654C72.004 57.0448 71.7427 56.9832 71.589 56.9164C71.4506 56.8496 71.2354 56.6955 71.1125 56.5722C70.9895 56.4438 70.8358 56.228 70.7641 56.0841C70.6975 55.9454 70.6053 55.668 70.5643 55.4676C70.5233 55.2724 70.4874 54.9025 70.4874 54.6457C70.4874 54.3939 70.5182 54.0343 70.5592 53.8494C70.595 53.6644 70.6872 53.3921 70.7641 53.2483C70.8358 53.0993 70.9742 52.8938 71.0664 52.7911C71.1535 52.6883 71.3328 52.5445 71.4609 52.4725C71.589 52.4006 71.7939 52.3133 71.922 52.2773C72.0501 52.2414 72.3626 52.2105 72.6137 52.2105ZM93.9989 54.2963L93.3124 52.303C92.8564 52.3081 92.7232 52.3133 92.7232 52.3236C92.7232 52.3287 92.4004 53.2586 92.0059 54.3888C91.6114 55.519 91.2425 56.5157 91.1964 56.5979C91.1452 56.6852 91.0376 56.7725 90.9402 56.8034C90.848 56.8342 90.7814 56.8804 90.7916 56.9061C90.8019 56.9369 91.0734 56.9626 91.4321 56.9729C91.9598 56.9832 92.0571 56.9729 92.0571 56.9061C92.0571 56.865 92.0059 56.8239 91.9444 56.8188C91.8829 56.8085 91.7958 56.7469 91.7548 56.6749C91.6882 56.5568 91.6934 56.5003 91.8214 56.0841C91.9034 55.8324 91.9905 55.5909 92.0264 55.555C92.0674 55.5087 92.2826 55.4933 92.8769 55.5036L93.671 55.519C93.9784 56.4438 93.9989 56.567 93.9579 56.6647C93.9272 56.7263 93.8298 56.7931 93.7479 56.8188C93.6608 56.8393 93.5942 56.8856 93.5942 56.9215C93.5942 56.9678 93.9528 56.9832 95.2234 56.9832C96.1917 56.9832 96.9705 56.9626 97.155 56.9267C97.324 56.8958 97.5648 56.8188 97.6929 56.752C97.821 56.6903 97.9901 56.5619 98.0721 56.4643C98.154 56.3667 98.2616 56.1972 98.3129 56.0841C98.3641 55.9711 98.4358 55.704 98.4666 55.4933C98.5127 55.2005 98.5127 55.0001 98.4717 54.6611C98.4358 54.4093 98.3641 54.1114 98.3026 53.9932C98.2411 53.8699 98.1079 53.685 98.0054 53.5771C97.903 53.4692 97.698 53.3356 97.5392 53.274C97.2933 53.1815 97.114 53.1609 96.2071 53.1404C95.2644 53.1199 95.1568 53.125 95.1568 53.2021C95.1568 53.2534 95.1978 53.2842 95.2747 53.2842C95.3361 53.2842 95.4437 53.3408 95.5155 53.4127L95.6435 53.5411V56.5722C95.4437 56.7777 95.331 56.8291 95.249 56.8291C95.1722 56.8291 95.0543 56.7931 94.9929 56.752C94.9263 56.7109 94.834 56.5876 94.7828 56.4849C94.7316 56.377 94.378 55.3906 93.9989 54.2963ZM78.813 53.0788C79.0231 53.0788 79.2793 53.1147 79.4278 53.1661C79.5918 53.2226 79.766 53.3356 79.9146 53.4846C80.0888 53.6593 80.1759 53.8083 80.263 54.0703C80.3244 54.2604 80.391 54.584 80.4064 54.7895C80.4218 54.9899 80.4167 55.3238 80.3859 55.519C80.3603 55.7194 80.2732 56.0276 80.1912 56.2074C80.099 56.4181 79.9658 56.5979 79.8377 56.7109C79.725 56.8034 79.5201 56.9215 79.3766 56.9678C79.2024 57.0191 78.9975 57.0397 78.7362 57.0294C78.4493 57.014 78.2853 56.9729 78.0957 56.8753C77.9523 56.8034 77.7678 56.6544 77.6859 56.5414C77.5988 56.4335 77.4707 56.2023 77.4092 56.0328C77.3067 55.7759 77.2862 55.6218 77.2811 55.108C77.276 54.6457 77.3016 54.4145 77.3682 54.1833C77.4194 54.0138 77.5168 53.7877 77.5885 53.685C77.6551 53.5771 77.7986 53.4281 77.901 53.351C78.0086 53.2688 78.1726 53.1815 78.2751 53.1455C78.3724 53.1096 78.6183 53.0839 78.813 53.0788ZM105.916 53.1301C105.803 53.1044 105.516 53.0839 105.276 53.0839C105.035 53.0839 104.784 53.1044 104.712 53.125C104.64 53.1455 104.502 53.2123 104.405 53.2688C104.307 53.3305 104.169 53.4795 104.102 53.6028C104.01 53.762 103.974 53.9007 103.979 54.1062C103.979 54.2604 104.015 54.4607 104.056 54.5429C104.102 54.6302 104.22 54.7741 104.323 54.8666C104.425 54.9539 104.743 55.144 105.035 55.2776C105.352 55.4317 105.614 55.5909 105.701 55.6886C105.803 55.8119 105.839 55.9043 105.839 56.0739C105.839 56.192 105.798 56.3616 105.747 56.4438C105.696 56.5311 105.568 56.639 105.465 56.6903C105.358 56.7366 105.158 56.7777 105.009 56.7777C104.825 56.7777 104.671 56.7366 104.533 56.6595C104.41 56.5876 104.282 56.4592 104.215 56.3256C104.148 56.2074 104.077 56.1098 104.046 56.1098C104.015 56.1098 103.995 56.2742 103.995 56.4951V56.8804C104.471 57.014 104.763 57.0448 105.045 57.0448C105.445 57.0397 105.542 57.0191 105.788 56.8958C105.972 56.8034 106.121 56.6749 106.223 56.5259C106.331 56.3718 106.382 56.228 106.398 56.0379C106.408 55.894 106.403 55.6886 106.382 55.5858C106.362 55.4625 106.28 55.3084 106.162 55.1748C106.019 55.0156 105.803 54.882 105.342 54.6611C104.85 54.4299 104.692 54.3271 104.61 54.1987C104.553 54.1062 104.507 53.9727 104.507 53.9007C104.512 53.8288 104.538 53.7209 104.574 53.6593C104.61 53.5925 104.702 53.4949 104.789 53.4384C104.896 53.3664 105.03 53.3356 105.24 53.3356C105.414 53.3356 105.604 53.3716 105.716 53.4281C105.834 53.4846 105.931 53.5822 105.983 53.7055C106.029 53.8134 106.085 53.9007 106.111 53.9007C106.131 53.9007 106.157 53.8494 106.172 53.7877C106.188 53.7209 106.198 53.5874 106.198 53.4897C106.198 53.3921 106.177 53.2791 106.157 53.2431C106.136 53.2072 106.029 53.1558 105.916 53.1301ZM108.478 53.0942C108.816 53.1044 108.995 53.1404 109.144 53.2175C109.257 53.274 109.436 53.423 109.543 53.5463C109.651 53.6747 109.784 53.9161 109.851 54.1062C109.943 54.3785 109.964 54.5532 109.964 55.0567C109.964 55.5293 109.938 55.7451 109.861 55.9814C109.805 56.1509 109.692 56.3821 109.605 56.4951C109.518 56.6081 109.333 56.7725 109.195 56.8547C108.985 56.9832 108.883 57.014 108.534 57.0294C108.242 57.0448 108.042 57.0243 107.863 56.9626C107.725 56.9215 107.52 56.8136 107.417 56.7263C107.299 56.6338 107.161 56.4386 107.069 56.2537C106.966 56.043 106.895 55.7759 106.854 55.4933C106.808 55.1645 106.808 54.9488 106.854 54.62C106.895 54.3169 106.961 54.0857 107.079 53.8545C107.171 53.6747 107.33 53.4589 107.427 53.3767C107.525 53.2997 107.699 53.1969 107.812 53.1558C107.955 53.0993 108.155 53.0839 108.478 53.0942ZM115.651 53.1301C115.538 53.1044 115.251 53.0839 115.01 53.0839C114.759 53.0839 114.488 53.1147 114.37 53.1558C114.257 53.1969 114.098 53.2945 114.021 53.3716C113.939 53.4538 113.837 53.5874 113.796 53.6696C113.74 53.7774 113.724 53.9264 113.734 54.1627C113.75 54.4299 113.786 54.5378 113.898 54.6868C113.975 54.7895 114.144 54.9436 114.283 55.031C114.416 55.1132 114.662 55.2313 114.826 55.2981C114.995 55.3649 115.23 55.5087 115.353 55.6218C115.548 55.8067 115.569 55.853 115.574 56.0584C115.574 56.192 115.533 56.3564 115.482 56.4438C115.43 56.5311 115.297 56.639 115.184 56.6955C115.036 56.7674 114.903 56.788 114.677 56.7725C114.477 56.7571 114.318 56.7109 114.216 56.6441C114.129 56.5876 114.016 56.4438 113.96 56.3256C113.904 56.2074 113.827 56.1098 113.796 56.1098C113.75 56.1098 113.729 56.2228 113.729 56.4951V56.8804C114.19 57.014 114.508 57.05 114.754 57.05C115.092 57.05 115.246 57.0243 115.446 56.9369C115.589 56.8753 115.758 56.7725 115.825 56.7109C115.891 56.6493 115.989 56.5054 116.04 56.3924C116.096 56.2691 116.137 56.0687 116.137 55.8941C116.137 55.7297 116.107 55.519 116.066 55.4317C116.03 55.3392 115.922 55.1954 115.835 55.108C115.743 55.0258 115.389 54.8152 115.046 54.6457C114.482 54.3682 114.411 54.3169 114.324 54.1319C114.231 53.947 114.231 53.9059 114.298 53.7261C114.349 53.5874 114.426 53.4949 114.549 53.4281C114.657 53.3716 114.836 53.3356 115 53.3356C115.148 53.3356 115.348 53.3767 115.456 53.4281C115.589 53.4897 115.671 53.5771 115.722 53.7055C115.768 53.8134 115.83 53.8905 115.856 53.8853C115.886 53.875 115.907 53.7261 115.907 53.5565C115.907 53.3819 115.897 53.2277 115.881 53.2123C115.866 53.1969 115.763 53.1609 115.651 53.1301ZM37.6974 53.1301H40.669V53.5154C40.669 53.7363 40.6485 53.9007 40.6177 53.9007C40.5921 53.9007 40.5306 53.8237 40.4896 53.7363C40.4487 53.6439 40.3616 53.536 40.3001 53.5C40.2335 53.4589 40.0337 53.423 39.5162 53.4127L39.5059 54.8255C39.5008 55.6012 39.5162 56.341 39.5418 56.4694C39.5674 56.5979 39.6289 56.7314 39.6801 56.7674C39.7314 56.8034 39.8236 56.8291 39.8902 56.8291C39.9517 56.8291 40.0132 56.865 40.0285 56.9061C40.049 56.9729 39.9363 56.9832 39.1832 56.9832C38.512 56.9832 38.3173 56.9678 38.3276 56.9215C38.3378 56.8856 38.4249 56.8393 38.5222 56.8188C38.6196 56.7982 38.7118 56.7623 38.7323 56.7417C38.7528 56.7212 38.7938 56.6184 38.8245 56.5208C38.8501 56.4181 38.8706 55.7297 38.8501 53.4127H38.5427C38.3276 53.4178 38.1892 53.4435 38.0816 53.5154C37.9997 53.5719 37.9074 53.6798 37.8767 53.762C37.8511 53.8391 37.7947 53.9007 37.764 53.9007C37.7179 53.9007 37.6974 53.7877 37.6974 53.5154V53.1301ZM43.036 54.8768L42.4212 53.1558C41.914 53.125 41.9037 53.1301 41.832 53.2945C41.7961 53.387 41.5092 54.1576 41.2018 55.0053C40.8944 55.8478 40.5972 56.5979 40.5409 56.6698C40.4845 56.7366 40.3872 56.8136 40.3257 56.8393C40.2591 56.8599 40.2079 56.9061 40.2079 56.9318C40.2079 56.9626 40.4384 56.9832 40.7971 56.9832C41.2889 56.9832 41.3863 56.9678 41.3863 56.9061C41.3863 56.8599 41.3401 56.8291 41.2582 56.8291C41.1813 56.8291 41.1096 56.788 41.0788 56.7263C41.0532 56.6698 41.043 56.5722 41.0584 56.5105C41.0701 56.4594 41.112 56.3388 41.1563 56.2113L41.1563 56.2112L41.1565 56.2107C41.1699 56.172 41.1836 56.1326 41.1967 56.0944L41.3094 55.7964L42.6927 55.8016C42.872 56.2999 42.9233 56.5208 42.9233 56.6133C42.9233 56.7109 42.8925 56.788 42.8464 56.8034C42.8054 56.8188 42.7235 56.8291 42.6671 56.8291C42.6108 56.8291 42.5646 56.865 42.5646 56.9061C42.5646 56.9729 42.6825 56.9832 43.3332 56.9832C43.9838 56.9832 44.1017 56.9729 44.1017 56.9061C44.1017 56.8599 44.0556 56.8291 43.989 56.8291C43.9224 56.8291 43.8199 56.7777 43.7584 56.716C43.6969 56.6441 43.3998 55.8941 43.036 54.8768ZM43.6406 53.1301H46.6122V53.5154C46.6122 53.7877 46.5917 53.9007 46.5507 53.9007C46.5148 53.9007 46.4482 53.8237 46.4072 53.7312C46.3611 53.6387 46.2535 53.5257 46.1511 53.4795C46.0537 53.4281 45.8641 53.387 45.7309 53.387C45.5004 53.387 45.485 53.3973 45.4594 53.5308C45.4491 53.6079 45.444 54.3323 45.4491 55.1389C45.4594 56.5362 45.4645 56.6184 45.5619 56.7212C45.6182 56.7828 45.7104 56.8291 45.7668 56.8291C45.8232 56.8239 45.9051 56.8599 45.9461 56.9061C46.0178 56.978 45.9461 56.9883 45.1417 56.9832C44.3783 56.9832 44.2605 56.9729 44.281 56.9061C44.2964 56.865 44.3527 56.8291 44.4091 56.8291C44.4654 56.8291 44.5577 56.8085 44.614 56.7777C44.6704 56.752 44.737 56.639 44.7677 56.5362C44.7933 56.4283 44.819 55.6783 44.819 53.387H44.5628C44.4245 53.387 44.2144 53.4281 44.0966 53.4795C43.948 53.5411 43.8711 53.613 43.8301 53.7363C43.7943 53.8288 43.7379 53.9007 43.7072 53.9007C43.6611 53.9007 43.6406 53.7877 43.6406 53.5154V53.1301ZM49.4301 53.2586V53.1301C47.4165 53.1301 46.8171 53.1455 46.7915 53.1661C46.7659 53.1815 46.7505 53.2175 46.7556 53.2431C46.7607 53.2637 46.8222 53.2842 46.894 53.2842C46.9657 53.2842 47.0682 53.3305 47.1245 53.387C47.1809 53.4435 47.2423 53.5668 47.2577 53.6593C47.2731 53.7466 47.2782 54.4504 47.268 55.2211C47.2577 56.377 47.2372 56.6338 47.1757 56.7006C47.1348 56.7469 47.022 56.7982 46.9247 56.8188C46.8273 56.8393 46.7403 56.8856 46.73 56.9215C46.7198 56.9678 47.0272 56.9832 48.1492 56.9832H49.5838C49.5838 56.377 49.5633 56.2126 49.5325 56.2126C49.5069 56.2126 49.471 56.2537 49.4557 56.305C49.4454 56.3513 49.3635 56.4643 49.2764 56.5465C49.1227 56.6955 49.097 56.7006 48.5693 56.716C48.0826 56.7314 48.016 56.7212 47.9545 56.639C47.9135 56.5773 47.893 56.3256 47.893 55.8427V55.1337C48.6718 55.1337 48.7281 55.1491 48.8409 55.2621C48.9126 55.3341 48.969 55.4265 48.969 55.4676C48.969 55.5087 48.9997 55.5447 49.0356 55.5447C49.0817 55.5447 49.097 55.4265 49.0919 55.1234C49.0919 54.8871 49.0868 54.6354 49.0817 54.5583C49.0765 54.4761 49.0509 54.4145 49.0202 54.4145C48.9946 54.4145 48.969 54.4504 48.969 54.4915C48.969 54.5326 48.9126 54.6251 48.8409 54.697C48.7281 54.8152 48.6769 54.8255 48.3029 54.8255H47.893C47.9186 53.6028 47.9289 53.5257 48.0211 53.4538C48.1031 53.3921 48.2158 53.3819 48.5591 53.4075C48.8255 53.423 49.0407 53.4641 49.1124 53.5154C49.1739 53.5565 49.2507 53.6644 49.2764 53.7466C49.3071 53.834 49.3583 53.8956 49.3942 53.8853C49.4352 53.8699 49.4506 53.7826 49.4454 53.6285C49.4352 53.4949 49.4301 53.3305 49.4301 53.2586ZM54.0412 53.1301H57.0128V53.5154C57.0128 53.7363 56.9923 53.9007 56.9615 53.9007C56.9359 53.9007 56.8898 53.8391 56.8591 53.762C56.8334 53.6798 56.7515 53.5771 56.6797 53.5308C56.608 53.4795 56.4133 53.423 56.2391 53.4024C55.9932 53.3664 55.9215 53.3767 55.8856 53.4384C55.86 53.4795 55.8395 54.096 55.8395 54.7998C55.8344 55.5087 55.8497 56.2177 55.8754 56.377C55.8958 56.5362 55.9368 56.6955 55.9625 56.7263C55.9932 56.7571 56.0905 56.7982 56.1879 56.8188C56.2852 56.8393 56.3723 56.8856 56.3826 56.9215C56.3928 56.9678 56.2033 56.9832 55.5526 56.9832C54.8353 56.9832 54.7072 56.9729 54.7072 56.9061C54.7072 56.8547 54.7584 56.8291 54.8507 56.8291C54.9275 56.8342 55.0351 56.7828 55.0915 56.7212C55.1888 56.6184 55.1939 56.5311 55.2196 53.387L54.9788 53.3921C54.8404 53.3921 54.6509 53.4178 54.5535 53.4538C54.451 53.4897 54.3332 53.5822 54.2717 53.6798C54.2154 53.7723 54.1385 53.8442 54.1078 53.8494C54.0617 53.8494 54.0412 53.7466 54.0412 53.4897V53.1301ZM59.0878 53.1918C58.9187 53.1609 58.4166 53.1353 57.976 53.1353C57.2843 53.125 57.1716 53.1353 57.1665 53.2072C57.1665 53.2483 57.2075 53.2842 57.2587 53.2842C57.3048 53.2791 57.3868 53.3202 57.4329 53.3716C57.5097 53.4538 57.52 53.6233 57.5251 55.0207C57.5251 55.9557 57.5046 56.6133 57.4739 56.6749C57.4483 56.7314 57.3612 56.7931 57.2843 56.8085C57.2023 56.8239 57.1101 56.8496 57.0794 56.8599C57.0435 56.8702 57.0128 56.9061 57.0128 56.9318C57.0128 56.9626 57.3304 56.9832 57.8581 56.9832C58.5754 56.9832 58.7035 56.9729 58.7035 56.9061C58.7035 56.8599 58.6574 56.8291 58.5908 56.8291C58.5242 56.8342 58.4166 56.788 58.3449 56.7314L58.2168 56.6338C58.1912 53.6541 58.1963 53.5874 58.2936 53.4897C58.3602 53.423 58.4627 53.387 58.5908 53.387C58.6933 53.387 58.8726 53.4332 58.9853 53.4795C59.1287 53.5463 59.2158 53.6336 59.2824 53.762C59.3286 53.8648 59.3695 54.0446 59.3695 54.1576C59.3695 54.2706 59.3337 54.435 59.2927 54.5172C59.2517 54.6046 59.139 54.7176 59.0519 54.7741C58.9597 54.8306 58.7855 54.8923 58.6625 54.9128C58.5395 54.9385 58.4422 54.9693 58.4473 54.995C58.4473 55.0156 58.6933 55.4728 59.0007 56.0071L59.5489 56.9883L63.2634 56.9832C63.2634 56.3256 63.2429 56.2126 63.2019 56.2126C63.166 56.2126 63.1045 56.2794 63.0738 56.3667C63.0379 56.4489 62.9457 56.5619 62.8689 56.6133C62.7664 56.6801 62.5973 56.7058 62.2131 56.716C61.9261 56.7263 61.6649 56.7058 61.6239 56.6801C61.5624 56.639 61.5419 56.4746 61.5368 55.8786L61.5214 55.1337C62.2387 55.1286 62.3411 55.1491 62.459 55.2365C62.5358 55.293 62.5973 55.37 62.5973 55.406C62.5973 55.4368 62.6332 55.4676 62.6742 55.4676C62.7357 55.4676 62.751 55.3803 62.751 54.9693C62.751 54.5583 62.7357 54.4659 62.6742 54.4659C62.6332 54.4659 62.5973 54.5018 62.5973 54.5429C62.5973 54.584 62.5461 54.6662 62.4846 54.7227C62.3873 54.8101 62.295 54.8255 61.9466 54.8255H61.5214C61.547 53.685 61.5624 53.5874 61.6495 53.4897C61.7417 53.387 61.7878 53.3767 62.1618 53.3973C62.459 53.4075 62.6127 53.4435 62.7254 53.5154C62.8074 53.5719 62.8996 53.6798 62.9303 53.762C62.956 53.8391 63.0123 53.9007 63.0482 53.9007C63.0892 53.9007 63.1097 53.7877 63.1097 53.5154V53.1301C60.5787 53.1301 60.3942 53.1404 60.3942 53.2072C60.3942 53.2534 60.4403 53.2842 60.5223 53.2842C60.594 53.2842 60.7068 53.3408 60.7785 53.4127L60.9066 53.5411C60.881 56.6184 60.8758 56.6852 60.7785 56.7571C60.7221 56.7982 60.594 56.8291 60.4967 56.8342C60.3994 56.8342 60.2661 56.7931 60.2047 56.7417C60.1432 56.6903 59.887 56.305 59.6308 55.8786L59.1697 55.108C59.5437 54.9436 59.7282 54.8101 59.8204 54.7073C59.9126 54.5994 59.9997 54.435 60.0151 54.3271C60.0356 54.2193 60.0356 54.0394 60.0202 53.9264C59.9997 53.8134 59.9434 53.6644 59.8921 53.5925C59.8409 53.5206 59.7077 53.4127 59.595 53.351C59.4874 53.2894 59.2568 53.2175 59.0878 53.1918ZM66.1325 53.1301L66.1479 53.2483C66.1581 53.3099 66.1632 53.4743 66.1632 53.613C66.1581 53.7723 66.1325 53.875 66.0966 53.8853C66.0608 53.8956 66.0095 53.834 65.9788 53.7466C65.9532 53.6644 65.8661 53.5514 65.7892 53.5052C65.6936 53.4435 65.5091 53.4075 65.2359 53.3973C64.9285 53.3819 64.8004 53.3973 64.7235 53.4538C64.6313 53.5257 64.6211 53.6028 64.5955 54.8255H65.0053C65.3793 54.8255 65.4306 54.8152 65.5433 54.697C65.615 54.6251 65.6714 54.5326 65.6714 54.4915C65.6714 54.4504 65.697 54.4145 65.7226 54.4145C65.7534 54.4145 65.7841 54.4453 65.7892 54.4813C65.7995 54.5121 65.8046 54.7381 65.7943 54.9796C65.7912 55.1301 65.786 55.2747 65.7825 55.3709C65.7804 55.429 65.779 55.4695 65.779 55.4831C65.7739 55.5139 65.7534 55.5447 65.7226 55.5447C65.697 55.5447 65.6714 55.5087 65.6714 55.4676C65.6714 55.4265 65.615 55.3341 65.5433 55.2621C65.4306 55.1491 65.3742 55.1337 64.5955 55.1337V55.8427C64.5955 56.3256 64.616 56.5773 64.6569 56.639C64.7133 56.7212 64.785 56.7314 65.2461 56.716C65.6765 56.7058 65.7892 56.6801 65.9122 56.5927C65.989 56.5362 66.0864 56.4232 66.1222 56.3513C66.153 56.2742 66.2093 56.2126 66.235 56.2126C66.2657 56.2126 66.2862 56.377 66.2862 56.9832H64.8414C63.5195 56.9883 63.3966 56.9832 63.4683 56.9061C63.5093 56.8599 63.581 56.8291 63.622 56.8291C63.663 56.8291 63.7552 56.788 63.955 56.6338V55.0978C63.955 53.8288 63.9397 53.5463 63.8782 53.4538C63.8372 53.387 63.745 53.3253 63.6732 53.3048C63.6015 53.2894 63.5144 53.2637 63.4837 53.2534C63.4478 53.2431 63.4273 53.2123 63.4427 53.1815C63.4632 53.1507 63.9704 53.1301 66.1325 53.1301ZM69.3603 53.1301H66.3887V53.5154C66.3887 53.7877 66.4092 53.9007 66.4553 53.9007C66.486 53.9007 66.5424 53.8391 66.568 53.762C66.5987 53.6798 66.691 53.5719 66.7729 53.5206C66.8651 53.4589 67.0598 53.4075 67.2494 53.3921L67.5722 53.3613C67.5414 56.5311 67.5363 56.6184 67.439 56.7212C67.3826 56.7828 67.275 56.8342 67.1982 56.8291C67.1059 56.8291 67.0547 56.8547 67.0547 56.9061C67.0547 56.9729 67.1828 56.9832 67.9001 56.9832C68.5508 56.9832 68.7403 56.9678 68.7301 56.9215C68.7198 56.8856 68.6327 56.8393 68.5354 56.8188C68.438 56.7982 68.3458 56.7623 68.3202 56.7417C68.2997 56.7212 68.2587 56.6081 68.2331 56.4951C68.2075 56.3821 68.1921 55.6423 68.1972 54.8512L68.2075 53.4127C68.7762 53.423 68.9145 53.4538 69.017 53.5206C69.0938 53.5719 69.1809 53.6798 69.2066 53.762C69.2373 53.8391 69.2834 53.9007 69.309 53.9007C69.3398 53.9007 69.3603 53.7363 69.3603 53.5154V53.1301ZM75.3137 53.1301C76.0002 53.1301 76.1232 53.1404 76.1232 53.2072C76.1232 53.2483 76.0771 53.2842 76.0207 53.2842C75.9644 53.2842 75.8619 53.3356 75.6621 53.5154V55.0567C75.6621 56.2383 75.6723 56.6133 75.7236 56.6647C75.7697 56.7058 75.9285 56.7314 76.2001 56.7263C76.4819 56.7263 76.6663 56.7006 76.7893 56.6338C76.8866 56.5876 77.0147 56.4746 77.0711 56.3821C77.1274 56.2896 77.1889 56.2177 77.2145 56.2126C77.235 56.2126 77.2504 56.3872 77.2504 56.9832H75.8824C74.6938 56.9832 74.5093 56.9729 74.5093 56.9061C74.5093 56.865 74.5554 56.8291 74.6118 56.8291C74.6682 56.8342 74.7706 56.788 74.9704 56.6338V53.4795L74.8424 53.3819C74.7706 53.3253 74.6682 53.2791 74.6118 53.2842C74.5554 53.2842 74.5093 53.2483 74.5042 53.2072C74.4991 53.1404 74.622 53.1301 75.3137 53.1301ZM82.9579 53.2842C82.7222 53.1609 82.6607 53.1558 81.677 53.1353C80.7548 53.1199 80.6421 53.1301 80.637 53.2021C80.6336 53.2569 80.6745 53.2842 80.7599 53.2842C80.8419 53.2842 80.929 53.3356 80.9905 53.4281C81.093 53.5617 81.0981 53.6387 81.093 55.0978C81.093 56.5516 81.0878 56.6287 80.9905 56.7263C80.9341 56.7828 80.8368 56.8291 80.7753 56.8291C80.7036 56.8291 80.6575 56.8599 80.6575 56.9061C80.6575 56.9729 80.7907 56.9832 81.5285 56.9832C82.0767 56.9832 82.4968 56.9575 82.6556 56.9164C82.7991 56.8804 83.004 56.7931 83.1116 56.7212C83.2192 56.6544 83.3729 56.4951 83.4446 56.3667C83.542 56.192 83.5727 56.0584 83.5778 55.8221C83.5778 55.5653 83.5522 55.4728 83.4395 55.3084C83.3626 55.2005 83.2192 55.0618 83.1218 55.0053C83.0194 54.9488 82.9374 54.8974 82.9374 54.8923C82.9374 54.882 83.0091 54.8152 83.0962 54.7381C83.1884 54.6559 83.2909 54.5326 83.3268 54.4556C83.3678 54.3734 83.3985 54.1884 83.3985 54.0446C83.3985 53.875 83.3626 53.7004 83.3012 53.5925C83.2397 53.4743 83.1167 53.3664 82.9579 53.2842ZM85.3813 53.1301C85.6016 53.125 85.6323 53.1404 85.6887 53.2688C85.7245 53.3459 85.991 54.0857 86.283 54.9025C86.575 55.7245 86.8466 56.4489 86.8824 56.5208C86.9183 56.5927 86.9849 56.6903 87.031 56.7417C87.0771 56.7931 87.1642 56.8342 87.2308 56.8291C87.2923 56.8291 87.3897 56.8085 87.446 56.7777C87.5024 56.752 87.5741 56.6492 87.5997 56.5619C87.6305 56.4643 87.651 55.8067 87.651 55.0207C87.651 53.9675 87.6356 53.613 87.5792 53.5052C87.5434 53.423 87.4716 53.3459 87.4255 53.3253C87.3794 53.2997 87.2974 53.2842 87.2411 53.2842C87.1847 53.2842 87.1386 53.2483 87.1386 53.2072C87.1386 53.1404 87.2667 53.1301 87.9737 53.1301C88.6859 53.1301 88.814 53.1404 88.8089 53.2072C88.8037 53.2534 88.7525 53.2842 88.691 53.2842C88.6244 53.2842 88.5117 53.3408 88.2914 53.5308V55.0464C88.2914 56.3153 88.3016 56.5722 88.3682 56.6441C88.4297 56.7109 88.5322 56.7314 88.8806 56.7314C89.2495 56.7314 89.3417 56.7109 89.4954 56.6082C89.5928 56.5465 89.7055 56.4283 89.7413 56.3513C89.7721 56.2742 89.8284 56.2126 89.854 56.2126C89.8848 56.2126 89.9053 56.377 89.9053 56.9832H87.8713C86.0934 56.9832 85.8321 56.9729 85.8321 56.9061C85.8321 56.865 85.8783 56.8291 85.9397 56.8291C85.9961 56.8291 86.0678 56.7982 86.1037 56.7674C86.1395 56.7314 86.1652 56.6544 86.1652 56.5979C86.1652 56.5414 86.1139 56.3359 85.9346 55.7964L84.5052 55.8273L84.3771 56.228C84.2746 56.5362 84.2592 56.6492 84.3002 56.716C84.331 56.7623 84.4129 56.8136 84.4796 56.8291C84.5462 56.8445 84.6076 56.8856 84.6179 56.9215C84.623 56.9678 84.4898 56.978 84.0543 56.9729C83.6496 56.9626 83.4805 56.9369 83.4651 56.8958C83.4549 56.8599 83.4907 56.8291 83.542 56.8291C83.5881 56.8291 83.6803 56.7777 83.7418 56.716C83.8084 56.6441 84.0902 55.9557 84.4488 54.9796C84.7716 54.0908 85.0636 53.3099 85.0892 53.2483C85.1302 53.1507 85.1815 53.1301 85.3813 53.1301ZM99.8755 53.2072C99.8806 53.1404 99.7628 53.1301 99.1172 53.1301C98.4768 53.1301 98.359 53.1404 98.359 53.2072C98.359 53.2483 98.4051 53.2842 98.4614 53.2842C98.5178 53.2842 98.6203 53.3356 98.6869 53.4024C98.7791 53.4846 98.984 53.9881 99.4246 55.2365L100.039 56.9575L100.536 56.9883C101.402 54.5378 101.71 53.7158 101.776 53.5822C101.848 53.4281 101.94 53.3253 102.012 53.3048C102.073 53.2894 102.176 53.2894 102.243 53.3048C102.304 53.3202 102.386 53.387 102.422 53.4538C102.463 53.5308 102.488 53.9316 102.499 54.7741C102.509 55.4368 102.504 56.1252 102.488 56.305C102.468 56.5259 102.427 56.6544 102.355 56.7263C102.299 56.7828 102.202 56.8291 102.14 56.8291C102.068 56.8291 102.022 56.8599 102.022 56.9061C102.022 56.9729 102.145 56.9832 102.806 56.9832C103.462 56.9832 103.585 56.9729 103.585 56.9061C103.585 56.8599 103.539 56.8291 103.472 56.8291C103.406 56.8342 103.308 56.7828 103.252 56.7212C103.155 56.6184 103.149 56.5311 103.134 55.2159C103.124 54.4504 103.129 53.7466 103.144 53.6593C103.16 53.5668 103.221 53.4435 103.277 53.387C103.334 53.3305 103.431 53.2842 103.498 53.2842C103.559 53.2842 103.61 53.2534 103.616 53.2072C103.621 53.1404 103.441 53.1301 102.319 53.1301C101.202 53.1301 101.023 53.1404 101.023 53.2072C101.023 53.2483 101.064 53.2842 101.115 53.2842C101.161 53.2842 101.233 53.3099 101.269 53.3459C101.305 53.3819 101.331 53.4692 101.331 53.5411C101.331 53.613 101.136 54.2244 100.9 54.9025C100.67 55.5807 100.454 56.1355 100.429 56.1355C100.408 56.1355 100.188 55.5447 99.9421 54.8255C99.6962 54.1062 99.5117 53.4795 99.5271 53.4384C99.5425 53.3973 99.5783 53.3459 99.6091 53.3253C99.6398 53.3048 99.7116 53.2842 99.7679 53.2842C99.8243 53.2842 99.8704 53.2483 99.8755 53.2072ZM111.27 53.1404C111.946 53.1558 112.382 53.1918 112.5 53.2329C112.597 53.2688 112.74 53.3408 112.822 53.3973C112.899 53.4486 112.997 53.5668 113.043 53.6593C113.089 53.7466 113.13 53.9418 113.13 54.0805C113.13 54.2244 113.084 54.4248 113.033 54.5378C112.976 54.6508 112.869 54.7895 112.781 54.8512C112.694 54.9128 112.546 54.995 112.259 55.108L112.725 55.8632C112.981 56.2742 113.237 56.6647 113.294 56.7212C113.35 56.7828 113.437 56.8342 113.489 56.8291C113.535 56.8291 113.565 56.8599 113.56 56.8958C113.545 56.9369 113.407 56.9575 112.638 56.9575L112.085 55.9814C111.782 55.4471 111.542 54.9899 111.557 54.9693C111.567 54.9436 111.634 54.9282 111.706 54.9282C111.777 54.9282 111.91 54.8974 112.003 54.8614C112.09 54.8203 112.228 54.7176 112.31 54.6302C112.392 54.5326 112.464 54.3785 112.479 54.2501C112.505 54.0857 112.489 53.9778 112.418 53.8288C112.361 53.7158 112.254 53.5771 112.177 53.5206C112.085 53.4538 111.931 53.4075 111.767 53.3973C111.618 53.387 111.465 53.4075 111.424 53.4332C111.357 53.4795 111.347 53.7055 111.337 54.8871C111.326 55.6577 111.347 56.3821 111.373 56.4951C111.398 56.6081 111.46 56.7314 111.511 56.7674C111.562 56.8034 111.649 56.8291 111.706 56.8291C111.762 56.8291 111.808 56.865 111.808 56.9061C111.808 56.9729 111.685 56.9832 111.014 56.9832C110.343 56.9832 110.22 56.9729 110.22 56.9061C110.22 56.8599 110.266 56.8291 110.338 56.8291C110.399 56.8291 110.496 56.7828 110.553 56.7263C110.609 56.6698 110.671 56.5465 110.686 56.4592C110.701 56.3667 110.706 55.6577 110.681 53.4795L110.553 53.3819C110.481 53.3253 110.379 53.2791 110.322 53.2842C110.261 53.2842 110.22 53.2483 110.22 53.2021C110.22 53.125 110.327 53.1199 111.27 53.1404ZM45.4858 35.5345C45.245 35.4883 44.7634 35.4472 44.4099 35.4369C44.0563 35.4215 43.5594 35.4318 43.3083 35.4575C43.0573 35.4832 42.6628 35.5551 42.4373 35.6116C42.2119 35.6681 41.8891 35.7914 41.72 35.8839C41.5049 36.0072 41.3614 36.1305 41.2384 36.3103C41.0796 36.5466 41.0694 36.5826 41.0899 36.896C41.1104 37.1425 41.1513 37.2864 41.2487 37.4354C41.3204 37.5484 41.4792 37.7128 41.6022 37.8001C41.7252 37.8875 41.9301 38.0056 42.0684 38.0673C42.2016 38.1289 42.4988 38.2368 42.7294 38.3036C42.965 38.3704 43.4313 38.4834 43.7694 38.5605C44.1076 38.6324 44.8812 38.7865 45.4858 38.8995C46.0903 39.0126 47.1202 39.2129 47.7657 39.3414C48.4113 39.4698 49.1644 39.6342 49.4308 39.701C49.6972 39.7729 50.0764 39.8756 50.2762 39.9373C50.476 39.9938 50.9013 40.1428 51.224 40.2712C51.5468 40.3997 51.9874 40.5949 52.1975 40.7079C52.4076 40.8209 52.7406 41.0213 52.9404 41.1549C53.1351 41.2833 53.4886 41.5761 53.7243 41.8022C53.96 42.0282 54.2622 42.3776 54.3903 42.5831C54.5235 42.7834 54.6567 42.9889 54.6926 43.0454C54.7387 43.1173 54.7541 42.5265 54.7541 40.3483L54.7592 37.5638H47.9963C47.9963 37.2042 47.9604 37.0244 47.9143 36.9319C47.8682 36.8446 47.7708 36.6956 47.6991 36.6134C47.6274 36.5261 47.4634 36.3771 47.3353 36.2743C47.2073 36.1716 46.9972 36.0329 46.8691 35.9712C46.741 35.9044 46.4797 35.7965 46.2799 35.7298C46.0801 35.663 45.7266 35.5756 45.4858 35.5345ZM63.4844 36.3822H61.3685V38.206V40.0298C65.8771 39.9989 66.3587 39.9835 66.5688 39.9167C66.7122 39.8756 66.9428 39.778 67.0811 39.7061C67.2246 39.6342 67.4244 39.4852 67.5268 39.3773C67.6293 39.2694 67.7676 39.0639 67.8291 38.9252C67.8906 38.7814 67.9521 38.5656 67.9623 38.4372C67.9777 38.3087 67.9623 38.0416 67.9213 37.8464C67.8804 37.6152 67.7984 37.4046 67.701 37.2556C67.6139 37.1271 67.4295 36.9473 67.286 36.8549C67.1477 36.7624 66.9069 36.6391 66.7635 36.5826C66.6149 36.5312 66.2921 36.4644 66.0462 36.4336C65.7951 36.4079 64.6423 36.3822 63.4844 36.3822ZM101.946 36.4336H104.6C106.101 36.4336 107.387 36.4541 107.572 36.485C107.746 36.5158 108.012 36.5826 108.161 36.6339C108.304 36.6905 108.545 36.8394 108.683 36.9627C108.847 37.1066 108.986 37.2864 109.063 37.4662C109.16 37.6768 109.186 37.831 109.186 38.1289C109.186 38.4269 109.16 38.581 109.063 38.7917C108.986 38.9715 108.847 39.1513 108.683 39.2951C108.545 39.4184 108.299 39.5674 108.146 39.629C107.992 39.6856 107.725 39.7523 107.556 39.778C107.387 39.8037 106.055 39.8243 101.946 39.8243V38.1289V36.4336ZM82.6513 36.5517L80.7966 36.5261L80.7914 41.4888L80.7863 46.4515C84.4957 46.4156 84.757 46.4001 85.1925 46.3077C85.4589 46.246 85.8534 46.1381 86.0635 46.0611C86.2735 45.9892 86.5861 45.8556 86.7551 45.7734C86.9242 45.686 87.2316 45.496 87.4366 45.3418C87.6364 45.1877 87.9182 44.9309 88.0514 44.7665C88.1846 44.6072 88.3793 44.3246 88.4817 44.1397C88.5842 43.9547 88.7379 43.6003 88.825 43.3434C88.907 43.0865 89.0043 42.6755 89.0402 42.4187C89.0761 42.1412 89.0863 41.6583 89.0709 41.2114C89.0504 40.6565 89.0146 40.3431 88.9172 39.9784C88.8506 39.7112 88.7072 39.3157 88.5996 39.105C88.4971 38.8944 88.3332 38.617 88.2409 38.4885C88.1487 38.3601 87.9387 38.1289 87.7747 37.9697C87.6056 37.8155 87.3597 37.6101 87.2162 37.5124C87.0779 37.4148 86.7756 37.2504 86.5502 37.1477C86.3248 37.0449 85.9559 36.9062 85.7304 36.8446C85.505 36.7829 85.1361 36.6956 84.9107 36.6545C84.6238 36.6031 83.9424 36.5723 82.6513 36.5517ZM92.8879 53.1301C92.9186 53.1301 93.0775 53.5771 93.2414 54.1217C93.4054 54.6611 93.5437 55.1183 93.5437 55.1337C93.5437 55.1491 93.2312 55.1594 92.852 55.1594C92.4729 55.1594 92.1604 55.144 92.1552 55.1235C92.1552 55.0978 92.2936 54.6816 92.4575 54.1987C92.6266 53.7107 92.7803 53.2689 92.8008 53.2226C92.8213 53.1712 92.8572 53.1301 92.8879 53.1301ZM79.2493 53.4487C79.1263 53.3716 78.9931 53.3356 78.8343 53.3356C78.6806 53.3356 78.5423 53.3767 78.4244 53.4538C78.3271 53.5154 78.199 53.6696 78.1375 53.798C78.076 53.9264 77.994 54.2039 77.9633 54.4145C77.9274 54.6354 77.9172 55.0207 77.9326 55.3135C77.9479 55.5961 78.0043 55.9557 78.0555 56.1047C78.1068 56.2588 78.2041 56.4489 78.2758 56.526C78.3476 56.5979 78.4961 56.6904 78.6089 56.7263C78.7779 56.7828 78.8548 56.7828 79.0443 56.7263C79.1776 56.6904 79.3364 56.5928 79.4184 56.5003C79.5003 56.4129 79.5977 56.228 79.6387 56.0842C79.6797 55.9454 79.7258 55.5961 79.7411 55.3135C79.7616 55.031 79.7463 54.6251 79.7155 54.4145C79.6848 54.2039 79.6079 53.9264 79.5464 53.798C79.4798 53.6696 79.3466 53.5154 79.2493 53.4487ZM108.427 53.3356C108.561 53.3356 108.694 53.3767 108.812 53.4487C108.909 53.5154 109.042 53.6696 109.109 53.798C109.17 53.9264 109.247 54.1782 109.273 54.3631C109.298 54.5481 109.319 54.882 109.324 55.108C109.324 55.3341 109.288 55.6834 109.242 55.8787C109.201 56.079 109.119 56.3153 109.068 56.4078C109.011 56.4951 108.873 56.6184 108.76 56.675C108.648 56.7315 108.494 56.7777 108.412 56.7777C108.335 56.7777 108.176 56.7315 108.053 56.675C107.889 56.5979 107.807 56.5157 107.71 56.3153C107.638 56.1766 107.556 55.8787 107.526 55.6629C107.495 55.442 107.479 55.0413 107.5 54.7741C107.515 54.507 107.556 54.1833 107.597 54.0549C107.633 53.9264 107.715 53.7466 107.782 53.6542C107.848 53.5565 107.971 53.4487 108.058 53.4076C108.151 53.3716 108.315 53.3408 108.427 53.3356ZM82.6 53.5411C82.4976 53.4435 82.4002 53.4076 82.1748 53.3922C81.9135 53.3767 81.8674 53.3922 81.7905 53.4949C81.7085 53.6028 81.6983 53.7569 81.7034 55.1183C81.7085 56.5722 81.7137 56.6236 81.811 56.675C81.8674 56.7058 82.0108 56.7263 82.1287 56.7263C82.2516 56.7263 82.4463 56.6801 82.5642 56.6236C82.6974 56.5619 82.8152 56.4592 82.8613 56.3667C82.9023 56.2845 82.9484 56.115 82.9587 55.9968C82.9689 55.8735 82.9484 55.6834 82.9074 55.5704C82.8664 55.4574 82.7896 55.3187 82.7384 55.2622C82.682 55.2057 82.5539 55.1235 82.4412 55.0721C82.3336 55.0258 82.2004 54.9745 82.144 54.9539C82.0569 54.9231 82.0826 54.8974 82.2977 54.8049C82.4361 54.7382 82.5949 54.6405 82.641 54.5892C82.6922 54.5378 82.7537 54.3939 82.7845 54.2758C82.8152 54.1319 82.8152 53.9881 82.7845 53.8648C82.7589 53.7569 82.6769 53.6131 82.6 53.5411ZM96.7715 53.4024C96.9252 53.4127 97.1506 53.4743 97.2684 53.536C97.3914 53.5976 97.5246 53.6953 97.5656 53.762C97.6117 53.8237 97.6834 54.0035 97.7296 54.1576C97.7859 54.3528 97.8115 54.6354 97.8115 55.0824C97.8064 55.6064 97.7859 55.7759 97.6988 56.0071C97.6425 56.1612 97.5195 56.3616 97.4273 56.454C97.3351 56.5414 97.166 56.639 97.0533 56.6698C96.9405 56.7006 96.7663 56.7263 96.669 56.7263C96.5717 56.7263 96.4436 56.6955 96.3872 56.6544C96.2899 56.5825 96.2847 56.5208 96.2847 55.0567C96.2847 53.5925 96.2899 53.5309 96.3872 53.4538C96.4589 53.4024 96.5717 53.387 96.7715 53.4024ZM42.2939 54.6354C42.1607 54.2295 42.0326 53.9008 42.007 53.9008C41.9865 53.9008 41.8481 54.2398 41.6995 54.6611C41.5561 55.0772 41.4434 55.4214 41.4485 55.4317C41.4587 55.442 41.7047 55.4523 42.0018 55.4574C42.3349 55.4625 42.5398 55.4471 42.5398 55.4163C42.5398 55.3906 42.4322 55.0361 42.2939 54.6354ZM85.2488 53.9008C85.2745 53.9008 85.4025 54.2295 85.5306 54.6354C85.6638 55.0361 85.7714 55.3855 85.7766 55.4112C85.7766 55.4317 85.5409 55.4471 85.2437 55.442C84.9466 55.4368 84.7006 55.4317 84.6904 55.4266C84.6801 55.4214 84.7929 55.0772 84.9363 54.6611C85.0849 54.2398 85.2232 53.9008 85.2488 53.9008Z" fill="white"/>
</svg>
