<svg width="56" height="56" viewBox="0 0 56 56" fill="none" xmlns="http://www.w3.org/2000/svg">
<path d="M4.66699 29.4233H44.3337" stroke="#1DB5FF" stroke-width="1.5" stroke-miterlimit="10" stroke-linecap="round" stroke-linejoin="round"/>
<path d="M44.3337 23.9867V40.67C44.2637 47.32 42.4436 49 35.5136 49H13.4871C6.44039 49 4.66699 47.25 4.66699 40.2967V23.9867C4.66699 17.6867 6.13699 15.6567 11.667 15.33C12.227 15.3067 12.8337 15.2833 13.4871 15.2833H35.5136C42.5603 15.2833 44.3337 17.0333 44.3337 23.9867Z" stroke="#1DB5FF" stroke-width="1.5" stroke-linecap="round" stroke-linejoin="round"/>
<path opacity="0.4" d="M51.3337 15.7033V32.0133C51.3337 38.3133 49.8637 40.3433 44.3337 40.67V23.9867C44.3337 17.0333 42.5603 15.2833 35.5136 15.2833H13.4871C12.8337 15.2833 12.227 15.3067 11.667 15.33C11.737 8.68 13.5571 7 20.4871 7H42.5136C49.5603 7 51.3337 8.75 51.3337 15.7033Z" stroke="#E2E6E9" stroke-width="1.5" stroke-linecap="round" stroke-linejoin="round"/>
<path opacity="0.4" d="M12.25 41.5566H16.2633" stroke="#292D32" stroke-width="1.5" stroke-miterlimit="10" stroke-linecap="round" stroke-linejoin="round"/>
<path opacity="0.4" d="M21.2568 41.5566H29.2835" stroke="#292D32" stroke-width="1.5" stroke-miterlimit="10" stroke-linecap="round" stroke-linejoin="round"/>
</svg>
