<svg width="127" height="37" viewBox="0 0 127 37" fill="none" xmlns="http://www.w3.org/2000/svg">
<path fill-rule="evenodd" clip-rule="evenodd" d="M1.19137 23.3493C9.22463 36.5343 63.3807 40.4659 99.5896 30.4896C117.423 25.5816 130.314 14.8518 125.895 8.57546C125.245 7.6394 123.336 7.72887 123.508 8.68447C126.324 13.4952 120.369 18.1914 120.369 18.1914C123.75 8.43001 103.465 1.07678 72.567 0.381995C29.3544 -0.57317 -6.38726 10.9311 1.19137 23.3493ZM4.76608 17.1467C5.47589 16.1681 7.57454 15.0314 9.37769 14.4483C12.4069 13.4674 8.66639 13.6982 6.32722 14.5321L4.85112 15.0485C4.88705 15.0348 16.291 1.80816 66.678 2.11678C86.0521 2.23846 104.452 4.93681 112.987 10.5258C129.79 21.5393 100.742 33.5086 55.2867 34.3024C25.2762 34.8125 -1.46384 25.5571 4.76608 17.1467Z" fill="#1DB5FF"/>
</svg>
